<svg xmlns="http://www.w3.org/2000/svg" width="440" height="382" viewBox="0 0 440 382"><g transform="translate(-900 -149)"><g transform="translate(900 149)" fill="none" stroke="#fff" stroke-width="1"><rect width="440" height="382" stroke="none"/><rect x="0.5" y="0.5" width="439" height="381" fill="none"/></g><path d="M-66.92-10.36a31.66,31.66,0,0,0,2.34-2.52,6.589,6.589,0,0,1,1.2-1.1.572.572,0,0,0,.28-.44.354.354,0,0,0-.16-.3,17.793,17.793,0,0,0-2.22-1.4,5.8,5.8,0,0,1-1.26,2.06A32.449,32.449,0,0,1-71-9.88a32.1,32.1,0,0,1-6.3,4.1A7.486,7.486,0,0,1-75.58-4.6a.557.557,0,0,0,.42.2.564.564,0,0,0,.3-.08,34.6,34.6,0,0,0,5.5-3.84v4.66c0,1.36-.06,2.66-.08,4.1-.02.24.06.32.28.32a16.682,16.682,0,0,0,2,0c.22,0,.32-.08.3-.34-.04-1.6-.06-2.78-.06-4.16Zm16.78.94a29.8,29.8,0,0,0-3.48-2.1.569.569,0,0,0-.24-.08.278.278,0,0,0-.2.1c-.26.28-.74.9-1.32,1.64a21.941,21.941,0,0,1,3.9,2.38A24.432,24.432,0,0,1-59.02-.92a5.825,5.825,0,0,1,1.8,1.1.561.561,0,0,0,.38.14.911.911,0,0,0,.46-.16,26.251,26.251,0,0,0,6.84-6.24,20.448,20.448,0,0,1,2.62,2.64c.1.12.18.18.28.18a.309.309,0,0,0,.24-.14c.42-.46.82-.9,1.22-1.42a.533.533,0,0,0,.1-.26.432.432,0,0,0-.12-.28,23.243,23.243,0,0,0-2.94-2.72,39.279,39.279,0,0,0,2.28-3.96,4.37,4.37,0,0,1,.9-1.34.59.59,0,0,0,.22-.44.417.417,0,0,0-.2-.34,9.773,9.773,0,0,0-2.52-1.26,9.3,9.3,0,0,1-.76,2.46A23.684,23.684,0,0,1-50.14-9.42ZM-27.8-6.18c1.48,0,2.96.02,4.46.04.28.02.36-.06.36-.3a14.741,14.741,0,0,0,0-1.88c0-.24-.06-.3-.36-.28-1.54.02-3.08.06-4.6.06h-6.44a25.694,25.694,0,0,1-4.32-.24,21.706,21.706,0,0,0,.3,2.42c.06.3.22.42.46.42A15.993,15.993,0,0,1-35-6.18Zm8.98-2.32a17.537,17.537,0,0,1,4.04,2.18.387.387,0,0,0,.24.12c.08,0,.16-.08.26-.2a8.144,8.144,0,0,0,.88-1.52.593.593,0,0,0,.08-.22c0-.12-.08-.2-.22-.3a13.88,13.88,0,0,0-3.84-1.96c-.18-.04-.28.06-.38.2C-18-9.88-18.32-9.3-18.82-8.5Zm2.42-4.7a19.343,19.343,0,0,1,3.88,2.46.515.515,0,0,0,.3.14.223.223,0,0,0,.2-.12A8.56,8.56,0,0,0-11-12.22a.484.484,0,0,0,.08-.26.317.317,0,0,0-.16-.26,13.6,13.6,0,0,0-3.76-2.22c-.24-.12-.36-.08-.5.16C-15.68-14.28-16.06-13.72-16.4-13.2Zm-.84,11.4A12.631,12.631,0,0,0-15.76.24a.515.515,0,0,0,.4.24.443.443,0,0,0,.32-.16,6.572,6.572,0,0,1,1.16-.68A46.432,46.432,0,0,0-7.9-4.12,37.261,37.261,0,0,0-2.82-8.74.622.622,0,0,0-2.6-9.2a.978.978,0,0,0-.1-.38,9.988,9.988,0,0,1-.58-2.24A36.4,36.4,0,0,1-9.04-6.24a33.5,33.5,0,0,1-5.48,3.46A9.247,9.247,0,0,1-17.24-1.8Zm10-12.88a9.924,9.924,0,0,1,2.02,2.32.209.209,0,0,0,.34.06l.84-.62a.2.2,0,0,0,.06-.32,9.205,9.205,0,0,0-1.9-2.14c-.12-.1-.2-.12-.3-.04ZM-5.4-16a9.461,9.461,0,0,1,2,2.3.205.205,0,0,0,.34.06l.8-.62a.231.231,0,0,0,.06-.36,8.352,8.352,0,0,0-1.9-2.06c-.12-.1-.18-.12-.3-.04Zm16.88,5.64a31.659,31.659,0,0,0,2.34-2.52,6.589,6.589,0,0,1,1.2-1.1.572.572,0,0,0,.28-.44.354.354,0,0,0-.16-.3,17.793,17.793,0,0,0-2.22-1.4,5.8,5.8,0,0,1-1.26,2.06A32.449,32.449,0,0,1,7.4-9.88a32.1,32.1,0,0,1-6.3,4.1A7.486,7.486,0,0,1,2.82-4.6a.557.557,0,0,0,.42.2.564.564,0,0,0,.3-.08,34.6,34.6,0,0,0,5.5-3.84v4.66C9.04-2.3,8.98-1,8.96.44c-.02.24.06.32.28.32a16.682,16.682,0,0,0,2,0c.22,0,.32-.08.3-.34-.04-1.6-.06-2.78-.06-4.16Zm19.74-2.72c1.22,0,2.16.04,2.82.04.3.02.36-.06.36-.4a10.155,10.155,0,0,0,0-1.56c0-.22-.06-.32-.24-.32-.78.04-1.84.1-3.14.1h-3.6a27.554,27.554,0,0,1-3.28-.14,17.431,17.431,0,0,0,.1,1.92c.02.32.08.44.28.44.84-.06,1.84-.08,2.74-.08ZM32.74-8.8c-1.44,3.86-4.7,6.62-8.4,8.34A5.863,5.863,0,0,1,26.2.58a.653.653,0,0,0,.44.24.961.961,0,0,0,.4-.14A17.481,17.481,0,0,0,35.2-8.16a2.291,2.291,0,0,1,.68-.94.482.482,0,0,0,.22-.38.589.589,0,0,0-.2-.42,11.8,11.8,0,0,0-1.34-1.24.515.515,0,0,0-.3-.14.43.43,0,0,0-.26.12,2.2,2.2,0,0,1-1.06.22H26.08a35.394,35.394,0,0,1-3.68-.16,15.161,15.161,0,0,0,.22,2.02c.04.26.12.38.3.38,1-.06,2-.08,3-.08Zm13.38-5.1c-1.3,0-2.3,0-3.38-.08a11.652,11.652,0,0,0,.18,2.08c.04.22.1.36.26.34,1.08-.08,2.12-.12,3.16-.12l5.16-.02a24.532,24.532,0,0,1-3.76,5.02,24.294,24.294,0,0,1-7.04,5.1,5.479,5.479,0,0,1,1.68,1.3.447.447,0,0,0,.34.18,1.266,1.266,0,0,0,.46-.16A28.774,28.774,0,0,0,49.9-5.54,36.406,36.406,0,0,1,55.1-.58a.411.411,0,0,0,.28.16.346.346,0,0,0,.24-.12A10.717,10.717,0,0,0,56.96-1.9a.5.5,0,0,0,.14-.3.455.455,0,0,0-.16-.28A47.024,47.024,0,0,0,51.4-7.32a31.561,31.561,0,0,0,2.56-3.74,3.663,3.663,0,0,1,.74-.88.552.552,0,0,0,.26-.4.533.533,0,0,0-.1-.26,7.291,7.291,0,0,0-1.3-1.4.661.661,0,0,0-.34-.16.333.333,0,0,0-.22.08,2.937,2.937,0,0,1-1.38.18Zm22.42.76a5.208,5.208,0,0,1,.14-1.88,1.052,1.052,0,0,0,.16-.46c0-.16-.1-.28-.38-.34a14.763,14.763,0,0,0-2.5-.32,15.261,15.261,0,0,1,.2,2.96v9.84c0,1.28-.02,2.46-.08,3.94,0,.24.1.3.38.3a13.217,13.217,0,0,0,1.78,0c.28,0,.38-.06.36-.3-.04-1.44-.08-2.62-.08-3.92V-7.74a22.151,22.151,0,0,1,5.26,2.56.307.307,0,0,0,.22.1c.1,0,.18-.08.26-.22a11.754,11.754,0,0,0,.86-1.74c.1-.26,0-.4-.22-.52a28.211,28.211,0,0,0-6.36-2.72Z" transform="translate(1118 348)" fill="#fff"/></g></svg>