<svg xmlns="http://www.w3.org/2000/svg" width="209.576" height="45.402" viewBox="0 0 209.576 45.402"><g transform="translate(0 0)"><path d="M.689,30.122,3.723,15.334C5.66,5.893,9.87,0,19.8,0c9.5,0,11.575,5.02,9.953,12.933L29.227,15.5H20.5l.638-3.11c.7-3.439.947-5.949-2.545-5.949-3.656,0-4.512,3.11-5.184,6.385L9.376,32.469c-.749,3.656-.611,6.439,2.827,6.439,3.382,0,4.849-2.892,5.632-6.712L18.8,27.5H14.487l1.12-5.457H28.048l-4.657,22.7H17.5l.206-3.929a9.238,9.238,0,0,1-8.2,4.584C.5,45.4-1.2,39.344.689,30.122Z" transform="translate(0 0)" fill="#37952f"/><path d="M36.934,12.523H45.54c6.68,0,10.375,1.968,8.978,8.772-.832,4.057-2.3,6.8-5.788,8.239L50,45.724H43.073l-.684-15.043H39.93L36.845,45.724H30.124Zm5.829,14.141c3.237,0,4.629-1.6,5.294-4.837.63-3.073.115-4.754-3-4.754H42.722l-1.967,9.591Z" transform="translate(-2.727 -1.133)" fill="#37952f"/><path d="M66.709,12.523h7.5l-.417,33.2h-6.23l.267-7.3H62.584l-2.767,7.3H53.465Zm1.322,21.724.733-13.362L64.056,34.247Z" transform="translate(-4.839 -1.133)" fill="#37952f"/><path d="M78.556,35.805l6.021-.984c-.727,4.14-.155,6.148,2.017,6.148,1.722,0,2.515-1.271,2.809-2.706.581-2.828-.526-4.426-2.344-6.353l-2.829-2.991a8.5,8.5,0,0,1-2.5-8.4c1.118-5.451,5.215-8.444,10.747-8.444,6.68,0,7.015,4.959,6.386,9.222l-6.037.86c.541-3.033.642-5.123-1.572-5.123a3.239,3.239,0,0,0-2.916,2.828c-.487,2.378.4,3.648,1.914,5.247l2.756,2.951C95.3,30.477,97,33.386,96.076,37.9a10.3,10.3,0,0,1-10.255,8.238C79.675,46.133,77.4,42.855,78.556,35.805Z" transform="translate(-7.084 -1.093)" fill="#37952f"/><path d="M100.186,35.805l6.021-.984c-.727,4.14-.155,6.148,2.017,6.148,1.721,0,2.515-1.271,2.809-2.706.58-2.828-.526-4.426-2.344-6.353l-2.829-2.991a8.5,8.5,0,0,1-2.5-8.4c1.118-5.451,5.215-8.444,10.747-8.444,6.68,0,7.014,4.959,6.386,9.222l-6.037.86c.541-3.033.641-5.123-1.572-5.123a3.239,3.239,0,0,0-2.916,2.828c-.487,2.378.4,3.648,1.914,5.247l2.756,2.951c2.29,2.418,3.988,5.328,3.064,9.837a10.3,10.3,0,0,1-10.255,8.238C101.3,46.133,99.026,42.855,100.186,35.805Z" transform="translate(-9.042 -1.093)" fill="#37952f"/><path d="M143.959.6h18.662l-1.265,6.165h-9.712l-2.44,11.9h8.24l-1.288,6.275h-8.239L143.841,44.8h-8.948Z" transform="translate(-12.209 -0.054)" fill="#37952f"/><path d="M163.416,12.523h6.721l-6.811,33.2h-6.72Z" transform="translate(-14.175 -1.133)" fill="#37952f"/><path d="M173.644,12.523h14.466l-.96,4.673h-7.744L177.6,26.009h5.983l-.967,4.713h-5.983L174.5,41.133h7.828l-.942,4.591H166.834Z" transform="translate(-15.1 -1.133)" fill="#37952f"/><path d="M192.3,12.523h6.72l-5.868,28.61h7.827l-.942,4.591H185.49Z" transform="translate(-16.789 -1.133)" fill="#37952f"/><path d="M210.685,12.523H218.8c8.4,0,10.245,3.2,8.767,10.411l-2.481,12.092c-1.513,7.378-4.695,10.7-12.931,10.7h-8.278Zm2.353,28.487c3.688,0,4.255-1.763,4.969-5.246l2.816-13.731c.69-3.361.608-4.755-2.958-4.755h-1.434L211.563,41.01Z" transform="translate(-18.453 -1.133)" fill="#37952f"/></g></svg>