<svg xmlns="http://www.w3.org/2000/svg" width="80" height="80" viewBox="0 0 80 80"><circle cx="40" cy="40" r="40" fill="none"/><ellipse cx="3.633" cy="4.275" rx="3.633" ry="4.275" transform="translate(22.887 25.271) rotate(-14.589)" fill="#fff"/><ellipse cx="4.275" cy="3.633" rx="4.275" ry="3.633" transform="translate(47.275 29.986) rotate(-69.1)" fill="#fff"/><ellipse cx="3.787" cy="4.885" rx="3.787" ry="4.885" transform="translate(29.719 16.163) rotate(-7.651)" fill="#fff"/><ellipse cx="4.885" cy="3.787" rx="4.885" ry="3.787" transform="matrix(0.096, -0.995, 0.995, 0.096, 40.026, 24.998)" fill="#fff"/><path d="M18.493,15.71c3.1-.278,3.964,1.982,6.062,4.119,1.275,1.3,5.478,2.332,3.731,6.062-1.642,3.5-5.363,1.088-9.055,1.049-4.507-.048-6.528,2.487-9.171-.932-1.471-1.9-.427-5.324,2.332-6.335S15.035,16.022,18.493,15.71Z" transform="translate(20.936 12.199)" fill="#fff"/><path d="M-28.777-10a4.148,4.148,0,0,1,2.835.805,2.877,2.877,0,0,1,.889,2.247,3.575,3.575,0,0,1-.364,1.6,2.755,2.755,0,0,1-1.225,1.2,4.957,4.957,0,0,1-2.331.462h-.994V0h-1.792V-10Zm-.112,1.484h-1.078v3.346h.812a3.015,3.015,0,0,0,1.687-.4,1.46,1.46,0,0,0,.595-1.309,1.508,1.508,0,0,0-.49-1.232A2.367,2.367,0,0,0-28.889-8.512ZM-17.619,0l-.91-2.646H-22.3L-23.191,0h-1.9l3.668-10.038h2.044L-15.715,0Zm-1.372-4.186-.868-2.576q-.056-.182-.168-.525t-.21-.7q-.1-.357-.168-.595-.07.294-.175.658t-.2.686q-.091.322-.147.476l-.882,2.576Zm8.3-1.3h3.78V-.406A10.771,10.771,0,0,1-8.547,0a11.662,11.662,0,0,1-1.9.14A4.464,4.464,0,0,1-13.937-1.2a5.474,5.474,0,0,1-1.218-3.808,5.718,5.718,0,0,1,.609-2.716,4.252,4.252,0,0,1,1.771-1.778,5.863,5.863,0,0,1,2.828-.63,7.274,7.274,0,0,1,1.582.168,8.049,8.049,0,0,1,1.386.434L-7.6-8.064A7.255,7.255,0,0,0-8.7-8.456a4.874,4.874,0,0,0-1.288-.168,3.348,3.348,0,0,0-1.764.448,2.951,2.951,0,0,0-1.141,1.267,4.35,4.35,0,0,0-.4,1.925,5.271,5.271,0,0,0,.308,1.876,2.636,2.636,0,0,0,.98,1.274,3.029,3.029,0,0,0,1.75.462,6.176,6.176,0,0,0,.9-.056q.371-.056.679-.126V-3.962h-2.016ZM1.169,0H-4.515V-10H1.169v1.5H-2.723V-5.95H.917v1.5h-3.64v2.94H1.169Zm9.352,0H8.729V-8.484H5.859V-10h7.532v1.512h-2.87ZM23.569-5.012A6.649,6.649,0,0,1,23.058-2.3,3.915,3.915,0,0,1,21.5-.5,4.955,4.955,0,0,1,18.865.14,4.939,4.939,0,0,1,16.219-.5,3.935,3.935,0,0,1,14.672-2.31a6.7,6.7,0,0,1-.511-2.716,6.611,6.611,0,0,1,.511-2.7,3.887,3.887,0,0,1,1.554-1.792,5.019,5.019,0,0,1,2.653-.637,4.96,4.96,0,0,1,2.625.637,3.887,3.887,0,0,1,1.554,1.792A6.649,6.649,0,0,1,23.569-5.012Zm-7.518,0a4.561,4.561,0,0,0,.679,2.66,2.429,2.429,0,0,0,2.135.966,2.419,2.419,0,0,0,2.156-.966,4.672,4.672,0,0,0,.658-2.66,4.672,4.672,0,0,0-.658-2.66,2.4,2.4,0,0,0-2.142-.966,2.444,2.444,0,0,0-2.149.966A4.561,4.561,0,0,0,16.051-5.012ZM28.679-10a4.148,4.148,0,0,1,2.835.805A2.877,2.877,0,0,1,32.4-6.944a3.575,3.575,0,0,1-.364,1.6,2.755,2.755,0,0,1-1.225,1.2,4.957,4.957,0,0,1-2.331.462h-.994V0H25.7V-10Zm-.112,1.484H27.489v3.346H28.3a3.015,3.015,0,0,0,1.687-.4,1.46,1.46,0,0,0,.595-1.309,1.508,1.508,0,0,0-.49-1.232A2.367,2.367,0,0,0,28.567-8.512Z" transform="translate(40 57)" fill="#fff"/></svg>