<svg xmlns="http://www.w3.org/2000/svg" width="400" height="140" viewBox="0 0 400 140"><g transform="translate(-369.35 -101.475)"><rect width="400" height="140" transform="translate(369.35 101.475)" fill="none"/><g transform="translate(441.634 134.803)"><g transform="translate(38.522)"><path d="M181.675,687.217H182.7a30.079,30.079,0,0,0,3.878-.182,9.106,9.106,0,0,1,1.232-.084,3.924,3.924,0,0,1,1.084.322,2.519,2.519,0,0,1,.973.538.985.985,0,0,1,.155.582,1.016,1.016,0,0,1-.21.728,1.359,1.359,0,0,1-.91.21,3.059,3.059,0,0,1-.868-.182,3.146,3.146,0,0,0-.938-.182q-.154,0-1.021.07a10.937,10.937,0,0,1-1.68-.07q-.938-.084-1.4-.084-.644,0-1.946.084t-1.974.084a3.3,3.3,0,0,1-1.085-.147.626.626,0,0,1-.413-.664,1.027,1.027,0,0,1,.189-.525q.189-.3,1.281-.476a11.343,11.343,0,0,1,1.568-.175Z" transform="translate(-177.573 -673.008)" fill="#341e12"/><path d="M211.4,682.705a2.326,2.326,0,0,0-1.589.952,25.17,25.17,0,0,0-2.625,4.269,28.261,28.261,0,0,1-3,5.068,1.9,1.9,0,0,1-1.127.616,1.436,1.436,0,0,1-1.652-1.6,11.418,11.418,0,0,1,.224-1.9,49.75,49.75,0,0,0,.77-8.917,2.124,2.124,0,0,1,.455-1.183q.454-.651.861-.651a1.167,1.167,0,0,1,1.036.448,3.548,3.548,0,0,1,.308,1.806,39.945,39.945,0,0,1-.84,5.823,13.67,13.67,0,0,0-.28,1.848c0,.149.037.224.112.224A16.1,16.1,0,0,0,206,686.162a21.84,21.84,0,0,1,3.066-4.787,3.937,3.937,0,0,1,2.9-1.386,2.4,2.4,0,0,1,2.051,1.148,10.041,10.041,0,0,1,1.155,4.186,25.018,25.018,0,0,0,.707,4.3q.315.847,1,.847a2.721,2.721,0,0,0,1.092-.308.44.44,0,0,1,.168-.056q.6,0,.6.7a1.855,1.855,0,0,1-.826,1.309,2.989,2.989,0,0,1-1.988.693,2.105,2.105,0,0,1-1.841-.945q-.651-.944-1.029-5.046T211.4,682.705Z" transform="translate(-186.551 -670.148)" fill="#341e12"/><path d="M244.351,687.853q0,1.427-2.527,3.443a8.285,8.285,0,0,1-5.214,2.016,4.492,4.492,0,0,1-3.479-1.33,5.273,5.273,0,0,1-1.225-3.71,12.515,12.515,0,0,1,2.7-7.616q2.7-3.611,5.907-3.612a2.308,2.308,0,0,1,2.38,2.338,5.686,5.686,0,0,1-2.114,4.13,27.121,27.121,0,0,1-5.655,3.878,1.117,1.117,0,0,0-.728.98,2.575,2.575,0,0,0,.672,1.862,2.631,2.631,0,0,0,1.988.7q3.01,0,6.146-3.332.462-.462.7-.462Q244.351,687.139,244.351,687.853Zm-9.73-2.184q5.936-3.528,5.936-5.67,0-.839-.756-.839-1.288,0-2.9,1.89A10.914,10.914,0,0,0,234.621,685.669Z" transform="translate(-198.043 -669.277)" fill="#341e12"/><path d="M259.089,681.365q.182-.238,2.506-2.254,2.2-1.918,3.066-2.786,3.234-3.234,4.648-3.234,1.092,0,1.092,1.05a1.849,1.849,0,0,1-1.078,1.75,32.608,32.608,0,0,0-3.738,2.372q-2.338,1.66-2.338,2.345A8.5,8.5,0,0,0,264.9,682.7a19.352,19.352,0,0,0,2.856,2.673,4.032,4.032,0,0,0,2.338.861l.462-.014c.327-.019.49.126.49.434a1.728,1.728,0,0,1-.77,1.253,3.088,3.088,0,0,1-2.03.636,2.912,2.912,0,0,1-1.645-.567,20.562,20.562,0,0,1-2.961-3.058q-1.694-2.058-2.114-2.457a1.165,1.165,0,0,0-.7-.4,3.434,3.434,0,0,0-.98.728,2.693,2.693,0,0,0-.9,1.106,27.027,27.027,0,0,0-.077,2.884v.658a1.183,1.183,0,0,1-.49.924,1.633,1.633,0,0,1-1.064.406,1.235,1.235,0,0,1-.924-.343,1.012,1.012,0,0,1-.336-.707,16.754,16.754,0,0,1,.378-2.38q.532-2.7.98-7.238,1.036-10.709,1.6-12.115t1.6-1.407a.712.712,0,0,1,.609.392,1.874,1.874,0,0,1,.245,1.008,45.5,45.5,0,0,1-.966,5.95A93.047,93.047,0,0,0,259.089,681.365Z" transform="translate(-207.14 -664.58)" fill="#341e12"/><path d="M287.661,693.645a3.982,3.982,0,0,1-3.164-1.456,5.34,5.34,0,0,1-1.246-3.6,12.39,12.39,0,0,1,2.429-7.118q2.429-3.508,5.817-3.507a4.455,4.455,0,0,1,3.633,1.721,6.323,6.323,0,0,1,1.392,4.1,9.763,9.763,0,0,1-2.876,6.747Q290.769,693.645,287.661,693.645Zm-1.946-5.417a4.1,4.1,0,0,0,.595,2.31,1.814,1.814,0,0,0,1.575.9,5.865,5.865,0,0,0,4.186-2.289,7.356,7.356,0,0,0,2.1-5.089,4.529,4.529,0,0,0-.805-2.793,2.568,2.568,0,0,0-2.163-1.071q-2.254,0-3.87,2.765A10.474,10.474,0,0,0,285.715,688.228Z" transform="translate(-217.387 -669.623)" fill="#341e12"/><path d="M319.032,682.705a2.328,2.328,0,0,0-1.589.952,25.224,25.224,0,0,0-2.625,4.269,28.255,28.255,0,0,1-3,5.068,1.9,1.9,0,0,1-1.127.616,1.436,1.436,0,0,1-1.652-1.6,11.423,11.423,0,0,1,.224-1.9,49.751,49.751,0,0,0,.77-8.917,2.128,2.128,0,0,1,.455-1.183q.455-.651.861-.651a1.167,1.167,0,0,1,1.036.448,3.548,3.548,0,0,1,.308,1.806,39.937,39.937,0,0,1-.84,5.823,13.573,13.573,0,0,0-.28,1.848c0,.149.037.224.112.224a16.131,16.131,0,0,0,1.946-3.346,21.816,21.816,0,0,1,3.066-4.787,3.937,3.937,0,0,1,2.9-1.386,2.4,2.4,0,0,1,2.051,1.148,10.05,10.05,0,0,1,1.155,4.186,25.012,25.012,0,0,0,.707,4.3q.315.847,1,.847a2.721,2.721,0,0,0,1.092-.308.438.438,0,0,1,.168-.056q.6,0,.6.7a1.857,1.857,0,0,1-.826,1.309,2.989,2.989,0,0,1-1.988.693,2.105,2.105,0,0,1-1.841-.945q-.651-.944-1.029-5.046T319.032,682.705Z" transform="translate(-227.102 -670.148)" fill="#341e12"/><path d="M344.172,693.645a3.982,3.982,0,0,1-3.164-1.456,5.34,5.34,0,0,1-1.246-3.6,12.39,12.39,0,0,1,2.429-7.118q2.429-3.508,5.817-3.507a4.453,4.453,0,0,1,3.632,1.721,6.32,6.32,0,0,1,1.393,4.1,9.761,9.761,0,0,1-2.877,6.747Q347.28,693.645,344.172,693.645Zm-1.946-5.417a4.1,4.1,0,0,0,.6,2.31,1.813,1.813,0,0,0,1.575.9q2.086,0,4.186-2.289a7.356,7.356,0,0,0,2.1-5.089,4.53,4.53,0,0,0-.805-2.793,2.568,2.568,0,0,0-2.163-1.071q-2.254,0-3.87,2.765A10.475,10.475,0,0,0,342.227,688.228Z" transform="translate(-238.678 -669.623)" fill="#341e12"/><path d="M368.811,681.365q.181-.238,2.505-2.254,2.2-1.918,3.066-2.786,3.234-3.234,4.648-3.234,1.092,0,1.092,1.05a1.849,1.849,0,0,1-1.078,1.75,32.5,32.5,0,0,0-3.738,2.372q-2.338,1.66-2.338,2.345a8.5,8.5,0,0,0,1.652,2.093,19.352,19.352,0,0,0,2.856,2.673,4.032,4.032,0,0,0,2.338.861l.462-.014c.326-.019.49.126.49.434a1.728,1.728,0,0,1-.77,1.253,3.086,3.086,0,0,1-2.03.636,2.916,2.916,0,0,1-1.645-.567,20.639,20.639,0,0,1-2.96-3.058q-1.694-2.058-2.114-2.457a1.166,1.166,0,0,0-.7-.4,3.433,3.433,0,0,0-.98.728,2.693,2.693,0,0,0-.9,1.106,27.023,27.023,0,0,0-.077,2.884v.658a1.184,1.184,0,0,1-.491.924,1.632,1.632,0,0,1-1.064.406,1.234,1.234,0,0,1-.924-.343,1.012,1.012,0,0,1-.336-.707,16.807,16.807,0,0,1,.378-2.38q.532-2.7.98-7.238,1.036-10.709,1.6-12.115t1.6-1.407a.712.712,0,0,1,.609.392,1.874,1.874,0,0,1,.245,1.008,45.619,45.619,0,0,1-.966,5.95A93.047,93.047,0,0,0,368.811,681.365Z" transform="translate(-248.478 -664.58)" fill="#341e12"/><path d="M397.383,693.645a3.98,3.98,0,0,1-3.164-1.456,5.34,5.34,0,0,1-1.246-3.6,12.389,12.389,0,0,1,2.428-7.118q2.429-3.508,5.817-3.507a4.453,4.453,0,0,1,3.633,1.721,6.323,6.323,0,0,1,1.393,4.1,9.764,9.764,0,0,1-2.877,6.747Q400.49,693.645,397.383,693.645Zm-1.946-5.417a4.1,4.1,0,0,0,.595,2.31,1.814,1.814,0,0,0,1.575.9,5.864,5.864,0,0,0,4.186-2.289,7.356,7.356,0,0,0,2.1-5.089,4.533,4.533,0,0,0-.8-2.793,2.569,2.569,0,0,0-2.163-1.071q-2.254,0-3.87,2.765A10.474,10.474,0,0,0,395.438,688.228Z" transform="translate(-258.726 -669.623)" fill="#341e12"/><path d="M430.34,681.8q-1.3.029-5.571,7.713a25.932,25.932,0,0,1-1.68,2.821,2.127,2.127,0,0,1-.875.413,4.012,4.012,0,0,1-1.056.182q-.938,0-.938-3.654a55.085,55.085,0,0,1,.882-7.448,21.853,21.853,0,0,0,.364-3.121q0-.925.826-.924,1.554,0,1.554,2.24a30.815,30.815,0,0,1-.518,4.115q-.6,3.5-.616,4.256a20.15,20.15,0,0,0,2.548-3.682,27.408,27.408,0,0,1,3.506-4.934,3.423,3.423,0,0,1,2.331-1.043q.911,0,1.448,1.218t.651,5.809a6.464,6.464,0,0,0,.21,1.708q.181.56.266.56.658,0,2.856-4.48a16.223,16.223,0,0,1,2.289-3.6,3.286,3.286,0,0,1,2.471-1.232,1.725,1.725,0,0,1,1.652,1.169,11.794,11.794,0,0,1,.742,3.465,32.434,32.434,0,0,0,.651,4.255,3.315,3.315,0,0,0,1.617,2.478q.8.378.8.882a1.385,1.385,0,0,1-.672,1.008,2.092,2.092,0,0,1-1.232.518,2.454,2.454,0,0,1-2-1.372q-.883-1.371-1.33-5.935a23.89,23.89,0,0,0-.378-2.6q-.181-.77-.574-.77-.587,0-1.392,1.12a45.027,45.027,0,0,0-2.6,4.55,24.711,24.711,0,0,1-2.121,3.562,1.935,1.935,0,0,1-1.393.889,1.48,1.48,0,0,1-1.078-.482,2.192,2.192,0,0,1-.6-1.163q-.126-.678-.266-3.338Q430.9,682.533,430.34,681.8Z" transform="translate(-268.99 -669.556)" fill="#341e12"/><path d="M470.673,693.645a3.981,3.981,0,0,1-3.164-1.456,5.34,5.34,0,0,1-1.246-3.6,12.39,12.39,0,0,1,2.428-7.118q2.43-3.508,5.817-3.507a4.453,4.453,0,0,1,3.633,1.721,6.32,6.32,0,0,1,1.393,4.1,9.764,9.764,0,0,1-2.877,6.747Q473.78,693.645,470.673,693.645Zm-1.946-5.417a4.1,4.1,0,0,0,.6,2.31,1.813,1.813,0,0,0,1.574.9,5.864,5.864,0,0,0,4.186-2.289,7.356,7.356,0,0,0,2.1-5.089,4.529,4.529,0,0,0-.8-2.793,2.569,2.569,0,0,0-2.163-1.071q-2.254,0-3.87,2.765A10.48,10.48,0,0,0,468.728,688.228Z" transform="translate(-286.338 -669.623)" fill="#341e12"/><path d="M502.044,682.705a2.327,2.327,0,0,0-1.589.952,25.126,25.126,0,0,0-2.625,4.269,28.277,28.277,0,0,1-3,5.068,1.9,1.9,0,0,1-1.127.616,1.436,1.436,0,0,1-1.652-1.6,11.489,11.489,0,0,1,.224-1.9,49.744,49.744,0,0,0,.77-8.917,2.127,2.127,0,0,1,.454-1.183q.455-.651.861-.651a1.167,1.167,0,0,1,1.036.448,3.548,3.548,0,0,1,.308,1.806,39.945,39.945,0,0,1-.84,5.823,13.676,13.676,0,0,0-.28,1.848c0,.149.037.224.112.224a16.063,16.063,0,0,0,1.946-3.346,21.861,21.861,0,0,1,3.066-4.787,3.937,3.937,0,0,1,2.9-1.386,2.4,2.4,0,0,1,2.051,1.148,10.042,10.042,0,0,1,1.155,4.186,25.092,25.092,0,0,0,.707,4.3q.316.847,1,.847a2.721,2.721,0,0,0,1.092-.308.44.44,0,0,1,.168-.056q.6,0,.6.7a1.855,1.855,0,0,1-.826,1.309,2.988,2.988,0,0,1-1.988.693,2.106,2.106,0,0,1-1.841-.945q-.651-.944-1.029-5.046T502.044,682.705Z" transform="translate(-296.052 -670.148)" fill="#341e12"/><path d="M527.185,693.645a3.982,3.982,0,0,1-3.164-1.456,5.34,5.34,0,0,1-1.246-3.6,12.39,12.39,0,0,1,2.429-7.118q2.43-3.508,5.817-3.507a4.454,4.454,0,0,1,3.633,1.721,6.323,6.323,0,0,1,1.392,4.1,9.766,9.766,0,0,1-2.876,6.747Q530.292,693.645,527.185,693.645Zm-1.946-5.417a4.1,4.1,0,0,0,.6,2.31,1.812,1.812,0,0,0,1.574.9,5.865,5.865,0,0,0,4.186-2.289,7.356,7.356,0,0,0,2.1-5.089,4.533,4.533,0,0,0-.8-2.793,2.569,2.569,0,0,0-2.163-1.071q-2.254,0-3.871,2.765A10.484,10.484,0,0,0,525.239,688.228Z" transform="translate(-307.628 -669.623)" fill="#341e12"/><path d="M558.323,687.217h1.022a30.074,30.074,0,0,0,3.878-.182,9.1,9.1,0,0,1,1.232-.084,3.932,3.932,0,0,1,1.085.322,2.519,2.519,0,0,1,.972.538.985.985,0,0,1,.154.582,1.016,1.016,0,0,1-.209.728,1.358,1.358,0,0,1-.91.21,3.06,3.06,0,0,1-.868-.182,3.146,3.146,0,0,0-.938-.182q-.154,0-1.022.07a10.932,10.932,0,0,1-1.68-.07q-.938-.084-1.4-.084-.643,0-1.946.084t-1.974.084a3.294,3.294,0,0,1-1.085-.147.626.626,0,0,1-.413-.664,1.031,1.031,0,0,1,.188-.525q.191-.3,1.281-.476a11.354,11.354,0,0,1,1.568-.175Z" transform="translate(-319.475 -673.008)" fill="#341e12"/></g><g transform="translate(0 34.84)"><path d="M123.082,720.48q2.367,0,2.366,2.586a11,11,0,0,1-.328,2.553q-.329,1.369-1.8,6.781a59.438,59.438,0,0,0-1.632,8.557,64.436,64.436,0,0,0-.559,7.242,62.575,62.575,0,0,0,.416,6.617q.11,1.03.11,1.293a3.043,3.043,0,0,1-.964,2.257,2.963,2.963,0,0,1-2.1.942,2.224,2.224,0,0,1-2.191-1.468,13.988,13.988,0,0,1-.636-5.039,108.069,108.069,0,0,1,1.808-18.12q1.807-10.431,2.958-12.314T123.082,720.48Z" transform="translate(-115.764 -720.48)" fill="#341e12"/><path d="M142.4,729.016a16.2,16.2,0,0,1-.636,3.549v-.022a15.619,15.619,0,0,1-1.6,4.032v-.022a3.2,3.2,0,0,1-2.826,2.016,2.6,2.6,0,0,1-1.7-.58,1.745,1.745,0,0,1-.712-1.392,2.784,2.784,0,0,1,.361-1.194,3.676,3.676,0,0,1,.778-1.084,5.237,5.237,0,0,0,1.731-4.054q0-.855-1.49-2.147-1.052-.921-1.051-1.293l-.153-1.1a5.374,5.374,0,0,1,.109-1.052q.153-.5,1.117-1a3.816,3.816,0,0,1,1.687-.493q.876,0,3.046,2.344l.263.307a5.408,5.408,0,0,1,.811,1.556,4.106,4.106,0,0,1,.263,1.6Z" transform="translate(-122.983 -721.5)" fill="#341e12"/><path d="M167.889,758.037q-5.763,7.6-11.131,7.6a4.451,4.451,0,0,1-3.4-1.556,5.644,5.644,0,0,1-1.425-3.966q0-5.807,5.171-12.369t10.43-6.562a3.407,3.407,0,0,1,3.506,2.695q2.519,0,2.52,1.928a20.436,20.436,0,0,1-.482,3.331,39.94,39.94,0,0,0-.876,7.209,13.939,13.939,0,0,0,.383,3.944,14.28,14.28,0,0,0,.559,1.49,2.177,2.177,0,0,0,1.051.745,1.283,1.283,0,0,1,.876,1.161,2.185,2.185,0,0,1-1.128,1.862,4.215,4.215,0,0,1-2.355.745Q167.473,766.3,167.889,758.037Zm-1.314-12.161q-2.214,0-5.752,4.9t-3.538,8.315q0,1.8.745,1.8,2.585,0,6.365-4.59t3.779-8.031a2.8,2.8,0,0,0-.493-1.742A1.4,1.4,0,0,0,166.575,745.877Z" transform="translate(-129.393 -728.282)" fill="#341e12"/><path d="M204.048,743.042q-.2,0-1.238,4.886a45.119,45.119,0,0,0-1.041,5.916,5.773,5.773,0,0,0,.383,2.509,1.322,1.322,0,0,0,1.26.712,6.6,6.6,0,0,0,2.355-.427,12.062,12.062,0,0,0,2.969-1.918,3.322,3.322,0,0,1,1.928-.942,1.423,1.423,0,0,1,1.018.362,1.125,1.125,0,0,1,.384.843q0,1.929-3.112,4.372a10.482,10.482,0,0,1-6.573,2.443,5.6,5.6,0,0,1-4.415-1.709,7.142,7.142,0,0,1-1.523-4.908q0-2.958,2.213-11.811-1.4.154-1.95.154h-.46a3.824,3.824,0,0,1-2.049-.657,2.3,2.3,0,0,1-1.041-2.1q0-1.841,2.082-1.84l4.689-.175q.92-2.651,1.95-6.946.613-2.673,2.783-2.673a2.438,2.438,0,0,1,1.884.734,2.35,2.35,0,0,1,.679,1.632q0,.351-1.862,6.77,6.968-.613,7.647-.613a2.4,2.4,0,0,1,1.534.34,1.744,1.744,0,0,1,.373,1.3q0,1.95-3.309,2.476Z" transform="translate(-144.923 -723.738)" fill="#341e12"/><path d="M249.724,757.575q0,2.279-3.835,5.445a13.236,13.236,0,0,1-8.655,3.166,7.489,7.489,0,0,1-5.828-2.333,9.3,9.3,0,0,1-2.125-6.5,17.975,17.975,0,0,1,4.338-11.5q4.338-5.369,9.268-5.369a5.208,5.208,0,0,1,5.434,5.259q0,3.812-3.66,7.263a19.821,19.821,0,0,1-9.377,4.766.749.749,0,0,0-.658.788,2.853,2.853,0,0,0,.931,2,3.317,3.317,0,0,0,2.487.953q4.4,0,8.743-4.535a2.325,2.325,0,0,1,1.621-.876Q249.724,756.107,249.724,757.575Zm-14.7-3.878a13.3,13.3,0,0,0,6.1-2.958q2.64-2.258,2.64-4.1a1.854,1.854,0,0,0-.405-1.216,1.289,1.289,0,0,0-1.041-.493q-1.906,0-4.229,2.8A14.544,14.544,0,0,0,235.022,753.7Z" transform="translate(-158.532 -728.016)" fill="#341e12"/><path d="M277.081,720.48q2.366,0,2.366,2.586a10.964,10.964,0,0,1-.329,2.553q-.328,1.369-1.8,6.781a59.351,59.351,0,0,0-1.633,8.557,64.558,64.558,0,0,0-.558,7.242,62.563,62.563,0,0,0,.416,6.617q.109,1.03.11,1.293a3.045,3.045,0,0,1-.964,2.257,2.965,2.965,0,0,1-2.1.942,2.224,2.224,0,0,1-2.191-1.468,13.991,13.991,0,0,1-.635-5.039,108.059,108.059,0,0,1,1.807-18.12q1.808-10.431,2.958-12.314T277.081,720.48Z" transform="translate(-173.783 -720.48)" fill="#341e12"/><path d="M291.44,744.007v.022q.7-3.987.7-4.557a4.882,4.882,0,0,1,.712-2.717,2.241,2.241,0,0,1,1.983-1.1,3.5,3.5,0,0,1,2.322.7,2.038,2.038,0,0,1,.833,1.577,16.67,16.67,0,0,1-.811,3.615l-.131.482a39.311,39.311,0,0,0-1.446,6.9q-.241,2.674-.241,4.317a18.716,18.716,0,0,0,.461,3.572,4.15,4.15,0,0,1,.065.657q0,.5-.953,1.359a3.021,3.021,0,0,1-2.049.854q-2.893,0-2.893-4.382a48.279,48.279,0,0,1,1.052-9.071Q291.265,745.059,291.44,744.007ZM302.023,726a3.48,3.48,0,0,1-1.4,2.728,4.094,4.094,0,0,1-2.432,1.172,3.109,3.109,0,0,1-2.334-1.1,3.254,3.254,0,0,1-1.018-2.191,3.392,3.392,0,0,1,1.008-2.553,3.994,3.994,0,0,1,2.892-.975,3.306,3.306,0,0,1,2.378.866A2.736,2.736,0,0,1,302.023,726Z" transform="translate(-181.405 -721.46)" fill="#341e12"/><path d="M330.318,757.575q0,2.279-3.834,5.445a13.238,13.238,0,0,1-8.655,3.166A7.488,7.488,0,0,1,312,763.853a9.3,9.3,0,0,1-2.125-6.5,17.978,17.978,0,0,1,4.338-11.5q4.339-5.369,9.269-5.369a5.207,5.207,0,0,1,5.434,5.259q0,3.812-3.659,7.263a19.82,19.82,0,0,1-9.378,4.766.749.749,0,0,0-.657.788,2.853,2.853,0,0,0,.931,2,3.316,3.316,0,0,0,2.487.953q4.4,0,8.742-4.535a2.328,2.328,0,0,1,1.622-.876Q330.317,756.107,330.318,757.575Zm-14.7-3.878a13.293,13.293,0,0,0,6.1-2.958q2.641-2.258,2.641-4.1a1.851,1.851,0,0,0-.406-1.216,1.288,1.288,0,0,0-1.041-.493q-1.906,0-4.229,2.8A14.56,14.56,0,0,0,315.615,753.7Z" transform="translate(-188.895 -728.016)" fill="#341e12"/><path d="M355.186,754.907l.373-.7a37.17,37.17,0,0,1,5.708-8.644q3.056-3.319,5.971-3.319a5.364,5.364,0,0,1,3.649,1.227,3.742,3.742,0,0,1,1.414,2.914,3.288,3.288,0,0,1-.482,1.807,1.505,1.505,0,0,1-1.336.756A3.435,3.435,0,0,1,368,747.829a2.211,2.211,0,0,0-1.249-.723q-1.643,0-5.5,5.105a23.518,23.518,0,0,0-4.645,11.482,4.051,4.051,0,0,1-1.073,2.575,3.294,3.294,0,0,1-2.257.734,2.23,2.23,0,0,1-2.147-1.72,17.743,17.743,0,0,1-.635-5.62q0-1.6.087-4.316.088-2.564.5-6.267.109-.964.153-1.512a16.413,16.413,0,0,1,.449-2.947,3.135,3.135,0,0,1,1.172-1.5,3.286,3.286,0,0,1,2.038-.7,2.3,2.3,0,0,1,1.8.679,2.179,2.179,0,0,1,.613,1.49,19.282,19.282,0,0,1-.986,4.272,18.545,18.545,0,0,0-.591,2.673Z" transform="translate(-204.2 -728.679)" fill="#341e12"/><path d="M441.022,731.336a20.749,20.749,0,0,1,4.4,5.883,13.975,13.975,0,0,1,1.665,6.234,13.37,13.37,0,0,1-2.246,7.012,23.134,23.134,0,0,1-5.949,6.4q4.076,4.8,4.876,5.982a3.94,3.94,0,0,1,.8,1.622q0,.832-1.337,1.786a4.255,4.255,0,0,1-1.884.953,2.984,2.984,0,0,1-2.169-1.1,29.371,29.371,0,0,0-2.772-4.415q-1.873-2.552-1.939-2.552a4.808,4.808,0,0,0-.964.175,26.861,26.861,0,0,1-6.945,1.008,12.7,12.7,0,0,1-8-2.553,8.247,8.247,0,0,1-3.308-6.891q0-4.864,3.484-10.485a33.634,33.634,0,0,1,8.775-9.5q5.291-3.878,9.52-3.878a3.744,3.744,0,0,1,2.673,1.391A4.23,4.23,0,0,1,441.022,731.336ZM430.9,755.395a8.207,8.207,0,0,0-.788-1.052q-1.906-2.059-1.907-2.476,0-.81,1.347-1.8a4.731,4.731,0,0,1,2.838-.986,1.621,1.621,0,0,1,1.643,1.468,5.281,5.281,0,0,0,.876,1.885q.636.876.986.876,1.731,0,3.955-3.188a10.806,10.806,0,0,0,2.224-6.146,13.015,13.015,0,0,0-2.75-7.921q-2.749-3.692-4.24-3.692-2.717,0-6.157,3.035a26.394,26.394,0,0,0-5.795,7.438,16.85,16.85,0,0,0-2.356,7.691,4.971,4.971,0,0,0,1.632,3.988,5.865,5.865,0,0,0,3.955,1.4A22.44,22.44,0,0,0,430.9,755.395Z" transform="translate(-228.597 -722.944)" fill="#341e12"/><path d="M490.131,757.954a20.323,20.323,0,0,1-4.875,6.091,8.873,8.873,0,0,1-5.62,2.257,4.875,4.875,0,0,1-3.407-1.774q-1.72-1.775-1.72-5.456a35.951,35.951,0,0,1,1.314-7.866,28.422,28.422,0,0,0,1.139-6.6,2.879,2.879,0,0,1,2.739-1.84,2.588,2.588,0,0,1,2.027.843,2.56,2.56,0,0,1,.756,1.7,13.6,13.6,0,0,1-1.1,4.426,42.535,42.535,0,0,0-1.369,4.831,23.953,23.953,0,0,0-.734,4q0,2.914,1.2,2.914,1.907,0,5.149-3.659a18.239,18.239,0,0,0,4.229-7.494,19.412,19.412,0,0,1,1.753-4.908,2.452,2.452,0,0,1,2.169-1.161q2.279,0,2.279,2.542a6.108,6.108,0,0,1-.373,1.49,27.56,27.56,0,0,0-1.293,8.742q0,5.7,1.928,6.815a1.073,1.073,0,0,1,.636.92q0,.789-1.117,1.49a4.024,4.024,0,0,1-2.125.7q-1.731,0-2.663-2.443A18.874,18.874,0,0,1,490.131,757.954Z" transform="translate(-250.921 -728.878)" fill="#341e12"/><path d="M538.421,757.575q0,2.279-3.834,5.445a13.238,13.238,0,0,1-8.655,3.166,7.488,7.488,0,0,1-5.828-2.333,9.3,9.3,0,0,1-2.125-6.5,17.978,17.978,0,0,1,4.338-11.5q4.339-5.369,9.269-5.369a5.207,5.207,0,0,1,5.434,5.259q0,3.812-3.659,7.263a19.82,19.82,0,0,1-9.378,4.766.749.749,0,0,0-.657.788,2.856,2.856,0,0,0,.931,2,3.317,3.317,0,0,0,2.487.953q4.4,0,8.742-4.535a2.328,2.328,0,0,1,1.622-.876Q538.422,756.107,538.421,757.575Zm-14.7-3.878a13.293,13.293,0,0,0,6.1-2.958q2.641-2.258,2.641-4.1a1.851,1.851,0,0,0-.406-1.216,1.287,1.287,0,0,0-1.041-.493q-1.906,0-4.229,2.8A14.557,14.557,0,0,0,523.719,753.7Z" transform="translate(-267.299 -728.016)" fill="#341e12"/><path d="M572.642,757.954a20.324,20.324,0,0,1-4.875,6.091,8.873,8.873,0,0,1-5.62,2.257,4.876,4.876,0,0,1-3.407-1.774q-1.72-1.775-1.72-5.456a35.947,35.947,0,0,1,1.314-7.866,28.419,28.419,0,0,0,1.139-6.6,2.878,2.878,0,0,1,2.739-1.84,2.588,2.588,0,0,1,2.027.843,2.559,2.559,0,0,1,.755,1.7,13.617,13.617,0,0,1-1.1,4.426,42.546,42.546,0,0,0-1.37,4.831,23.994,23.994,0,0,0-.734,4q0,2.914,1.2,2.914,1.906,0,5.149-3.659a18.246,18.246,0,0,0,4.229-7.494,19.389,19.389,0,0,1,1.753-4.908,2.452,2.452,0,0,1,2.169-1.161q2.279,0,2.279,2.542a6.093,6.093,0,0,1-.372,1.49,27.561,27.561,0,0,0-1.293,8.742q0,5.7,1.928,6.815a1.074,1.074,0,0,1,.636.92q0,.789-1.117,1.49a4.026,4.026,0,0,1-2.125.7q-1.732,0-2.663-2.443A18.872,18.872,0,0,1,572.642,757.954Z" transform="translate(-282.008 -728.878)" fill="#341e12"/><path d="M620.932,757.575q0,2.279-3.834,5.445a13.238,13.238,0,0,1-8.655,3.166,7.49,7.49,0,0,1-5.829-2.333,9.3,9.3,0,0,1-2.125-6.5,17.978,17.978,0,0,1,4.338-11.5q4.339-5.369,9.268-5.369a5.208,5.208,0,0,1,5.434,5.259q0,3.812-3.659,7.263a19.823,19.823,0,0,1-9.378,4.766.75.75,0,0,0-.658.788,2.854,2.854,0,0,0,.932,2,3.316,3.316,0,0,0,2.487.953q4.4,0,8.742-4.535a2.328,2.328,0,0,1,1.622-.876Q620.932,756.107,620.932,757.575Zm-14.7-3.878a13.3,13.3,0,0,0,6.1-2.958q2.64-2.258,2.641-4.1a1.851,1.851,0,0,0-.406-1.216,1.287,1.287,0,0,0-1.041-.493q-1.906,0-4.229,2.8A14.557,14.557,0,0,0,606.23,753.7Z" transform="translate(-298.385 -728.016)" fill="#341e12"/></g></g><path d="M264.043,96.646c1.841-.28,2.563,1.907,3.1,2.741s2.026,3.278,3.278,8.88c.775.954,1.907,2.563,2.98,2.861s3.218.626,4.231,1.7,2.324,2.235,3.933,2.175,6.5-2.205,8.224-2.741,2.861-.894,3.993-.656,1.132.656,1.252,1.073a9.6,9.6,0,0,1-.715,3.635,36.216,36.216,0,0,1-3.457,6.317c-.656.6-.179.775-.894,1.609s-1.222.894-2.056,1.788-.864,1.728-1.341,2.443-1.073,1.311-1.609,2.205a4.63,4.63,0,0,0-.3,3.159,9.4,9.4,0,0,0,1.967,3.576c1.073,1.252,2.384,3.039,2.682-.715a25.493,25.493,0,0,1,2.086-8.582c.656-1.073,2.893-6.917,5.3-10.668a27.768,27.768,0,0,0,3.278-7.748c.536-1.907,1.192-7.42.536-8.82-1.3-2.786-2.92-5.185-3.1-7.032s-.238-3.278.6-4.053,2.622-1.609,4.648.417a22.96,22.96,0,0,1,6.675,12.4c1.311,6.675-2.8,17.164-3.7,19.607s-3.814,11.5-4.947,14.005a19.66,19.66,0,0,0-2.026,6.377c-.238,2.205-.894,10.31-.3,12.694,1.55,1.252,2.026,2.92,2.5,6.258s-.477,10.668-1.192,13.588-1.132,10.668-1.252,12.634-.06,5.393-.6,7.122-1.447,2.545-1.49,3.4a4.4,4.4,0,0,0,.179,2.175,4.671,4.671,0,0,1,.656,2.741,31.777,31.777,0,0,1-1.073,7.33c-.477,1.073-2.682,5.244-4.291,5.423s-1.788.268-1.967-.089c-.358.656-2.324.834-3.337-.119a4.878,4.878,0,0,1-.238,4.38c-.417.417-1.251.775-1.728.417s-.119-.358-.536.06a2.455,2.455,0,0,1-2.771.268,4.82,4.82,0,0,1-3.367-.238c-1.371-.477-1.845.067-2.443-1.669-.3-.864-.864-2.95-.626-3.427a33.453,33.453,0,0,0,.626-3.844c-1.669-.06-2.622-.149-3.159-1.043a38.577,38.577,0,0,0-.119,4.827c.119,1.192.358,2.265-.179,2.861s-1.43,2.116-3.695,1.4c-.894.894-3.635.656-5.006.3s-2.682-1.222-2.741-2.175-.834-2.324-.179-3.159.656-.656,1.43-.954,0-1.788.536-2.98.656-2.086.3-4.529-5.364-23.481-6.973-29.679-5.006-19.19-5.542-24.613-.417-9.953,1.311-13.171,3.576-4.112,3.576-5.364-.656-1.132-1.013-5.006-.656-5.3.238-8.105,3.4-6.317,4.41-7.748a4.29,4.29,0,0,1,.775-2.265,7.369,7.369,0,0,1,.417-2.086,11.2,11.2,0,0,0,1.132-3.039C261,104.334,261.3,97.063,264.043,96.646Z" transform="translate(125.535 19.286)" fill="#341e12"/></g></svg>