<svg xmlns="http://www.w3.org/2000/svg" width="424" height="240" viewBox="0 0 424 240"><g transform="translate(-461.35 -42.975)"><rect width="424" height="240" transform="translate(461.35 42.975)" fill="none"/><g transform="translate(560.634 154.192)"><g transform="translate(38.522)"><path d="M181.675,687.217H182.7a30.079,30.079,0,0,0,3.878-.182,9.106,9.106,0,0,1,1.232-.084,3.924,3.924,0,0,1,1.084.322,2.519,2.519,0,0,1,.973.538.985.985,0,0,1,.155.582,1.016,1.016,0,0,1-.21.728,1.359,1.359,0,0,1-.91.21,3.059,3.059,0,0,1-.868-.182,3.146,3.146,0,0,0-.938-.182q-.154,0-1.021.07a10.937,10.937,0,0,1-1.68-.07q-.938-.084-1.4-.084-.644,0-1.946.084t-1.974.084a3.3,3.3,0,0,1-1.085-.147.626.626,0,0,1-.413-.664,1.027,1.027,0,0,1,.189-.525q.189-.3,1.281-.476a11.343,11.343,0,0,1,1.568-.175Z" transform="translate(-177.573 -673.008)" fill="#341e12"/><path d="M211.4,682.705a2.326,2.326,0,0,0-1.589.952,25.17,25.17,0,0,0-2.625,4.269,28.261,28.261,0,0,1-3,5.068,1.9,1.9,0,0,1-1.127.616,1.436,1.436,0,0,1-1.652-1.6,11.418,11.418,0,0,1,.224-1.9,49.75,49.75,0,0,0,.77-8.917,2.124,2.124,0,0,1,.455-1.183q.454-.651.861-.651a1.167,1.167,0,0,1,1.036.448,3.548,3.548,0,0,1,.308,1.806,39.945,39.945,0,0,1-.84,5.823,13.67,13.67,0,0,0-.28,1.848c0,.149.037.224.112.224A16.1,16.1,0,0,0,206,686.162a21.84,21.84,0,0,1,3.066-4.787,3.937,3.937,0,0,1,2.9-1.386,2.4,2.4,0,0,1,2.051,1.148,10.041,10.041,0,0,1,1.155,4.186,25.018,25.018,0,0,0,.707,4.3q.315.847,1,.847a2.721,2.721,0,0,0,1.092-.308.44.44,0,0,1,.168-.056q.6,0,.6.7a1.855,1.855,0,0,1-.826,1.309,2.989,2.989,0,0,1-1.988.693,2.105,2.105,0,0,1-1.841-.945q-.651-.944-1.029-5.046T211.4,682.705Z" transform="translate(-186.551 -670.148)" fill="#341e12"/><path d="M244.351,687.853q0,1.427-2.527,3.443a8.285,8.285,0,0,1-5.214,2.016,4.492,4.492,0,0,1-3.479-1.33,5.273,5.273,0,0,1-1.225-3.71,12.515,12.515,0,0,1,2.7-7.616q2.7-3.611,5.907-3.612a2.308,2.308,0,0,1,2.38,2.338,5.686,5.686,0,0,1-2.114,4.13,27.121,27.121,0,0,1-5.655,3.878,1.117,1.117,0,0,0-.728.98,2.575,2.575,0,0,0,.672,1.862,2.631,2.631,0,0,0,1.988.7q3.01,0,6.146-3.332.462-.462.7-.462Q244.351,687.139,244.351,687.853Zm-9.73-2.184q5.936-3.528,5.936-5.67,0-.839-.756-.839-1.288,0-2.9,1.89A10.914,10.914,0,0,0,234.621,685.669Z" transform="translate(-198.043 -669.277)" fill="#341e12"/><path d="M259.089,681.365q.182-.238,2.506-2.254,2.2-1.918,3.066-2.786,3.234-3.234,4.648-3.234,1.092,0,1.092,1.05a1.849,1.849,0,0,1-1.078,1.75,32.608,32.608,0,0,0-3.738,2.372q-2.338,1.66-2.338,2.345A8.5,8.5,0,0,0,264.9,682.7a19.352,19.352,0,0,0,2.856,2.673,4.032,4.032,0,0,0,2.338.861l.462-.014c.327-.019.49.126.49.434a1.728,1.728,0,0,1-.77,1.253,3.088,3.088,0,0,1-2.03.636,2.912,2.912,0,0,1-1.645-.567,20.562,20.562,0,0,1-2.961-3.058q-1.694-2.058-2.114-2.457a1.165,1.165,0,0,0-.7-.4,3.434,3.434,0,0,0-.98.728,2.693,2.693,0,0,0-.9,1.106,27.027,27.027,0,0,0-.077,2.884v.658a1.183,1.183,0,0,1-.49.924,1.633,1.633,0,0,1-1.064.406,1.235,1.235,0,0,1-.924-.343,1.012,1.012,0,0,1-.336-.707,16.754,16.754,0,0,1,.378-2.38q.532-2.7.98-7.238,1.036-10.709,1.6-12.115t1.6-1.407a.712.712,0,0,1,.609.392,1.874,1.874,0,0,1,.245,1.008,45.5,45.5,0,0,1-.966,5.95A93.047,93.047,0,0,0,259.089,681.365Z" transform="translate(-207.14 -664.58)" fill="#341e12"/><path d="M287.661,693.645a3.982,3.982,0,0,1-3.164-1.456,5.34,5.34,0,0,1-1.246-3.6,12.39,12.39,0,0,1,2.429-7.118q2.429-3.508,5.817-3.507a4.455,4.455,0,0,1,3.633,1.721,6.323,6.323,0,0,1,1.392,4.1,9.763,9.763,0,0,1-2.876,6.747Q290.769,693.645,287.661,693.645Zm-1.946-5.417a4.1,4.1,0,0,0,.595,2.31,1.814,1.814,0,0,0,1.575.9,5.865,5.865,0,0,0,4.186-2.289,7.356,7.356,0,0,0,2.1-5.089,4.529,4.529,0,0,0-.805-2.793,2.568,2.568,0,0,0-2.163-1.071q-2.254,0-3.87,2.765A10.474,10.474,0,0,0,285.715,688.228Z" transform="translate(-217.387 -669.623)" fill="#341e12"/><path d="M319.032,682.705a2.328,2.328,0,0,0-1.589.952,25.224,25.224,0,0,0-2.625,4.269,28.255,28.255,0,0,1-3,5.068,1.9,1.9,0,0,1-1.127.616,1.436,1.436,0,0,1-1.652-1.6,11.423,11.423,0,0,1,.224-1.9,49.751,49.751,0,0,0,.77-8.917,2.128,2.128,0,0,1,.455-1.183q.455-.651.861-.651a1.167,1.167,0,0,1,1.036.448,3.548,3.548,0,0,1,.308,1.806,39.937,39.937,0,0,1-.84,5.823,13.573,13.573,0,0,0-.28,1.848c0,.149.037.224.112.224a16.131,16.131,0,0,0,1.946-3.346,21.816,21.816,0,0,1,3.066-4.787,3.937,3.937,0,0,1,2.9-1.386,2.4,2.4,0,0,1,2.051,1.148,10.05,10.05,0,0,1,1.155,4.186,25.012,25.012,0,0,0,.707,4.3q.315.847,1,.847a2.721,2.721,0,0,0,1.092-.308.438.438,0,0,1,.168-.056q.6,0,.6.7a1.857,1.857,0,0,1-.826,1.309,2.989,2.989,0,0,1-1.988.693,2.105,2.105,0,0,1-1.841-.945q-.651-.944-1.029-5.046T319.032,682.705Z" transform="translate(-227.102 -670.148)" fill="#341e12"/><path d="M344.172,693.645a3.982,3.982,0,0,1-3.164-1.456,5.34,5.34,0,0,1-1.246-3.6,12.39,12.39,0,0,1,2.429-7.118q2.429-3.508,5.817-3.507a4.453,4.453,0,0,1,3.632,1.721,6.32,6.32,0,0,1,1.393,4.1,9.761,9.761,0,0,1-2.877,6.747Q347.28,693.645,344.172,693.645Zm-1.946-5.417a4.1,4.1,0,0,0,.6,2.31,1.813,1.813,0,0,0,1.575.9q2.086,0,4.186-2.289a7.356,7.356,0,0,0,2.1-5.089,4.53,4.53,0,0,0-.805-2.793,2.568,2.568,0,0,0-2.163-1.071q-2.254,0-3.87,2.765A10.475,10.475,0,0,0,342.227,688.228Z" transform="translate(-238.678 -669.623)" fill="#341e12"/><path d="M368.811,681.365q.181-.238,2.505-2.254,2.2-1.918,3.066-2.786,3.234-3.234,4.648-3.234,1.092,0,1.092,1.05a1.849,1.849,0,0,1-1.078,1.75,32.5,32.5,0,0,0-3.738,2.372q-2.338,1.66-2.338,2.345a8.5,8.5,0,0,0,1.652,2.093,19.352,19.352,0,0,0,2.856,2.673,4.032,4.032,0,0,0,2.338.861l.462-.014c.326-.019.49.126.49.434a1.728,1.728,0,0,1-.77,1.253,3.086,3.086,0,0,1-2.03.636,2.916,2.916,0,0,1-1.645-.567,20.639,20.639,0,0,1-2.96-3.058q-1.694-2.058-2.114-2.457a1.166,1.166,0,0,0-.7-.4,3.433,3.433,0,0,0-.98.728,2.693,2.693,0,0,0-.9,1.106,27.023,27.023,0,0,0-.077,2.884v.658a1.184,1.184,0,0,1-.491.924,1.632,1.632,0,0,1-1.064.406,1.234,1.234,0,0,1-.924-.343,1.012,1.012,0,0,1-.336-.707,16.807,16.807,0,0,1,.378-2.38q.532-2.7.98-7.238,1.036-10.709,1.6-12.115t1.6-1.407a.712.712,0,0,1,.609.392,1.874,1.874,0,0,1,.245,1.008,45.619,45.619,0,0,1-.966,5.95A93.047,93.047,0,0,0,368.811,681.365Z" transform="translate(-248.478 -664.58)" fill="#341e12"/><path d="M397.383,693.645a3.98,3.98,0,0,1-3.164-1.456,5.34,5.34,0,0,1-1.246-3.6,12.389,12.389,0,0,1,2.428-7.118q2.429-3.508,5.817-3.507a4.453,4.453,0,0,1,3.633,1.721,6.323,6.323,0,0,1,1.393,4.1,9.764,9.764,0,0,1-2.877,6.747Q400.49,693.645,397.383,693.645Zm-1.946-5.417a4.1,4.1,0,0,0,.595,2.31,1.814,1.814,0,0,0,1.575.9,5.864,5.864,0,0,0,4.186-2.289,7.356,7.356,0,0,0,2.1-5.089,4.533,4.533,0,0,0-.8-2.793,2.569,2.569,0,0,0-2.163-1.071q-2.254,0-3.87,2.765A10.474,10.474,0,0,0,395.438,688.228Z" transform="translate(-258.726 -669.623)" fill="#341e12"/><path d="M430.34,681.8q-1.3.029-5.571,7.713a25.932,25.932,0,0,1-1.68,2.821,2.127,2.127,0,0,1-.875.413,4.012,4.012,0,0,1-1.056.182q-.938,0-.938-3.654a55.085,55.085,0,0,1,.882-7.448,21.853,21.853,0,0,0,.364-3.121q0-.925.826-.924,1.554,0,1.554,2.24a30.815,30.815,0,0,1-.518,4.115q-.6,3.5-.616,4.256a20.15,20.15,0,0,0,2.548-3.682,27.408,27.408,0,0,1,3.506-4.934,3.423,3.423,0,0,1,2.331-1.043q.911,0,1.448,1.218t.651,5.809a6.464,6.464,0,0,0,.21,1.708q.181.56.266.56.658,0,2.856-4.48a16.223,16.223,0,0,1,2.289-3.6,3.286,3.286,0,0,1,2.471-1.232,1.725,1.725,0,0,1,1.652,1.169,11.794,11.794,0,0,1,.742,3.465,32.434,32.434,0,0,0,.651,4.255,3.315,3.315,0,0,0,1.617,2.478q.8.378.8.882a1.385,1.385,0,0,1-.672,1.008,2.092,2.092,0,0,1-1.232.518,2.454,2.454,0,0,1-2-1.372q-.883-1.371-1.33-5.935a23.89,23.89,0,0,0-.378-2.6q-.181-.77-.574-.77-.587,0-1.392,1.12a45.027,45.027,0,0,0-2.6,4.55,24.711,24.711,0,0,1-2.121,3.562,1.935,1.935,0,0,1-1.393.889,1.48,1.48,0,0,1-1.078-.482,2.192,2.192,0,0,1-.6-1.163q-.126-.678-.266-3.338Q430.9,682.533,430.34,681.8Z" transform="translate(-268.99 -669.556)" fill="#341e12"/><path d="M470.673,693.645a3.981,3.981,0,0,1-3.164-1.456,5.34,5.34,0,0,1-1.246-3.6,12.39,12.39,0,0,1,2.428-7.118q2.43-3.508,5.817-3.507a4.453,4.453,0,0,1,3.633,1.721,6.32,6.32,0,0,1,1.393,4.1,9.764,9.764,0,0,1-2.877,6.747Q473.78,693.645,470.673,693.645Zm-1.946-5.417a4.1,4.1,0,0,0,.6,2.31,1.813,1.813,0,0,0,1.574.9,5.864,5.864,0,0,0,4.186-2.289,7.356,7.356,0,0,0,2.1-5.089,4.529,4.529,0,0,0-.8-2.793,2.569,2.569,0,0,0-2.163-1.071q-2.254,0-3.87,2.765A10.48,10.48,0,0,0,468.728,688.228Z" transform="translate(-286.338 -669.623)" fill="#341e12"/><path d="M502.044,682.705a2.327,2.327,0,0,0-1.589.952,25.126,25.126,0,0,0-2.625,4.269,28.277,28.277,0,0,1-3,5.068,1.9,1.9,0,0,1-1.127.616,1.436,1.436,0,0,1-1.652-1.6,11.489,11.489,0,0,1,.224-1.9,49.744,49.744,0,0,0,.77-8.917,2.127,2.127,0,0,1,.454-1.183q.455-.651.861-.651a1.167,1.167,0,0,1,1.036.448,3.548,3.548,0,0,1,.308,1.806,39.945,39.945,0,0,1-.84,5.823,13.676,13.676,0,0,0-.28,1.848c0,.149.037.224.112.224a16.063,16.063,0,0,0,1.946-3.346,21.861,21.861,0,0,1,3.066-4.787,3.937,3.937,0,0,1,2.9-1.386,2.4,2.4,0,0,1,2.051,1.148,10.042,10.042,0,0,1,1.155,4.186,25.092,25.092,0,0,0,.707,4.3q.316.847,1,.847a2.721,2.721,0,0,0,1.092-.308.44.44,0,0,1,.168-.056q.6,0,.6.7a1.855,1.855,0,0,1-.826,1.309,2.988,2.988,0,0,1-1.988.693,2.106,2.106,0,0,1-1.841-.945q-.651-.944-1.029-5.046T502.044,682.705Z" transform="translate(-296.052 -670.148)" fill="#341e12"/><path d="M527.185,693.645a3.982,3.982,0,0,1-3.164-1.456,5.34,5.34,0,0,1-1.246-3.6,12.39,12.39,0,0,1,2.429-7.118q2.43-3.508,5.817-3.507a4.454,4.454,0,0,1,3.633,1.721,6.323,6.323,0,0,1,1.392,4.1,9.766,9.766,0,0,1-2.876,6.747Q530.292,693.645,527.185,693.645Zm-1.946-5.417a4.1,4.1,0,0,0,.6,2.31,1.812,1.812,0,0,0,1.574.9,5.865,5.865,0,0,0,4.186-2.289,7.356,7.356,0,0,0,2.1-5.089,4.533,4.533,0,0,0-.8-2.793,2.569,2.569,0,0,0-2.163-1.071q-2.254,0-3.871,2.765A10.484,10.484,0,0,0,525.239,688.228Z" transform="translate(-307.628 -669.623)" fill="#341e12"/><path d="M558.323,687.217h1.022a30.074,30.074,0,0,0,3.878-.182,9.1,9.1,0,0,1,1.232-.084,3.932,3.932,0,0,1,1.085.322,2.519,2.519,0,0,1,.972.538.985.985,0,0,1,.154.582,1.016,1.016,0,0,1-.209.728,1.358,1.358,0,0,1-.91.21,3.06,3.06,0,0,1-.868-.182,3.146,3.146,0,0,0-.938-.182q-.154,0-1.022.07a10.932,10.932,0,0,1-1.68-.07q-.938-.084-1.4-.084-.643,0-1.946.084t-1.974.084a3.294,3.294,0,0,1-1.085-.147.626.626,0,0,1-.413-.664,1.031,1.031,0,0,1,.188-.525q.191-.3,1.281-.476a11.354,11.354,0,0,1,1.568-.175Z" transform="translate(-319.475 -673.008)" fill="#341e12"/></g><g transform="translate(0 34.84)"><path d="M123.082,720.48q2.367,0,2.366,2.586a11,11,0,0,1-.328,2.553q-.329,1.369-1.8,6.781a59.438,59.438,0,0,0-1.632,8.557,64.436,64.436,0,0,0-.559,7.242,62.575,62.575,0,0,0,.416,6.617q.11,1.03.11,1.293a3.043,3.043,0,0,1-.964,2.257,2.963,2.963,0,0,1-2.1.942,2.224,2.224,0,0,1-2.191-1.468,13.988,13.988,0,0,1-.636-5.039,108.069,108.069,0,0,1,1.808-18.12q1.807-10.431,2.958-12.314T123.082,720.48Z" transform="translate(-115.764 -720.48)" fill="#341e12"/><path d="M142.4,729.016a16.2,16.2,0,0,1-.636,3.549v-.022a15.619,15.619,0,0,1-1.6,4.032v-.022a3.2,3.2,0,0,1-2.826,2.016,2.6,2.6,0,0,1-1.7-.58,1.745,1.745,0,0,1-.712-1.392,2.784,2.784,0,0,1,.361-1.194,3.676,3.676,0,0,1,.778-1.084,5.237,5.237,0,0,0,1.731-4.054q0-.855-1.49-2.147-1.052-.921-1.051-1.293l-.153-1.1a5.374,5.374,0,0,1,.109-1.052q.153-.5,1.117-1a3.816,3.816,0,0,1,1.687-.493q.876,0,3.046,2.344l.263.307a5.408,5.408,0,0,1,.811,1.556,4.106,4.106,0,0,1,.263,1.6Z" transform="translate(-122.983 -721.5)" fill="#341e12"/><path d="M167.889,758.037q-5.763,7.6-11.131,7.6a4.451,4.451,0,0,1-3.4-1.556,5.644,5.644,0,0,1-1.425-3.966q0-5.807,5.171-12.369t10.43-6.562a3.407,3.407,0,0,1,3.506,2.695q2.519,0,2.52,1.928a20.436,20.436,0,0,1-.482,3.331,39.94,39.94,0,0,0-.876,7.209,13.939,13.939,0,0,0,.383,3.944,14.28,14.28,0,0,0,.559,1.49,2.177,2.177,0,0,0,1.051.745,1.283,1.283,0,0,1,.876,1.161,2.185,2.185,0,0,1-1.128,1.862,4.215,4.215,0,0,1-2.355.745Q167.473,766.3,167.889,758.037Zm-1.314-12.161q-2.214,0-5.752,4.9t-3.538,8.315q0,1.8.745,1.8,2.585,0,6.365-4.59t3.779-8.031a2.8,2.8,0,0,0-.493-1.742A1.4,1.4,0,0,0,166.575,745.877Z" transform="translate(-129.393 -728.282)" fill="#341e12"/><path d="M204.048,743.042q-.2,0-1.238,4.886a45.119,45.119,0,0,0-1.041,5.916,5.773,5.773,0,0,0,.383,2.509,1.322,1.322,0,0,0,1.26.712,6.6,6.6,0,0,0,2.355-.427,12.062,12.062,0,0,0,2.969-1.918,3.322,3.322,0,0,1,1.928-.942,1.423,1.423,0,0,1,1.018.362,1.125,1.125,0,0,1,.384.843q0,1.929-3.112,4.372a10.482,10.482,0,0,1-6.573,2.443,5.6,5.6,0,0,1-4.415-1.709,7.142,7.142,0,0,1-1.523-4.908q0-2.958,2.213-11.811-1.4.154-1.95.154h-.46a3.824,3.824,0,0,1-2.049-.657,2.3,2.3,0,0,1-1.041-2.1q0-1.841,2.082-1.84l4.689-.175q.92-2.651,1.95-6.946.613-2.673,2.783-2.673a2.438,2.438,0,0,1,1.884.734,2.35,2.35,0,0,1,.679,1.632q0,.351-1.862,6.77,6.968-.613,7.647-.613a2.4,2.4,0,0,1,1.534.34,1.744,1.744,0,0,1,.373,1.3q0,1.95-3.309,2.476Z" transform="translate(-144.923 -723.738)" fill="#341e12"/><path d="M249.724,757.575q0,2.279-3.835,5.445a13.236,13.236,0,0,1-8.655,3.166,7.489,7.489,0,0,1-5.828-2.333,9.3,9.3,0,0,1-2.125-6.5,17.975,17.975,0,0,1,4.338-11.5q4.338-5.369,9.268-5.369a5.208,5.208,0,0,1,5.434,5.259q0,3.812-3.66,7.263a19.821,19.821,0,0,1-9.377,4.766.749.749,0,0,0-.658.788,2.853,2.853,0,0,0,.931,2,3.317,3.317,0,0,0,2.487.953q4.4,0,8.743-4.535a2.325,2.325,0,0,1,1.621-.876Q249.724,756.107,249.724,757.575Zm-14.7-3.878a13.3,13.3,0,0,0,6.1-2.958q2.64-2.258,2.64-4.1a1.854,1.854,0,0,0-.405-1.216,1.289,1.289,0,0,0-1.041-.493q-1.906,0-4.229,2.8A14.544,14.544,0,0,0,235.022,753.7Z" transform="translate(-158.532 -728.016)" fill="#341e12"/><path d="M277.081,720.48q2.366,0,2.366,2.586a10.964,10.964,0,0,1-.329,2.553q-.328,1.369-1.8,6.781a59.351,59.351,0,0,0-1.633,8.557,64.558,64.558,0,0,0-.558,7.242,62.563,62.563,0,0,0,.416,6.617q.109,1.03.11,1.293a3.045,3.045,0,0,1-.964,2.257,2.965,2.965,0,0,1-2.1.942,2.224,2.224,0,0,1-2.191-1.468,13.991,13.991,0,0,1-.635-5.039,108.059,108.059,0,0,1,1.807-18.12q1.808-10.431,2.958-12.314T277.081,720.48Z" transform="translate(-173.783 -720.48)" fill="#341e12"/><path d="M291.44,744.007v.022q.7-3.987.7-4.557a4.882,4.882,0,0,1,.712-2.717,2.241,2.241,0,0,1,1.983-1.1,3.5,3.5,0,0,1,2.322.7,2.038,2.038,0,0,1,.833,1.577,16.67,16.67,0,0,1-.811,3.615l-.131.482a39.311,39.311,0,0,0-1.446,6.9q-.241,2.674-.241,4.317a18.716,18.716,0,0,0,.461,3.572,4.15,4.15,0,0,1,.065.657q0,.5-.953,1.359a3.021,3.021,0,0,1-2.049.854q-2.893,0-2.893-4.382a48.279,48.279,0,0,1,1.052-9.071Q291.265,745.059,291.44,744.007ZM302.023,726a3.48,3.48,0,0,1-1.4,2.728,4.094,4.094,0,0,1-2.432,1.172,3.109,3.109,0,0,1-2.334-1.1,3.254,3.254,0,0,1-1.018-2.191,3.392,3.392,0,0,1,1.008-2.553,3.994,3.994,0,0,1,2.892-.975,3.306,3.306,0,0,1,2.378.866A2.736,2.736,0,0,1,302.023,726Z" transform="translate(-181.405 -721.46)" fill="#341e12"/><path d="M330.318,757.575q0,2.279-3.834,5.445a13.238,13.238,0,0,1-8.655,3.166A7.488,7.488,0,0,1,312,763.853a9.3,9.3,0,0,1-2.125-6.5,17.978,17.978,0,0,1,4.338-11.5q4.339-5.369,9.269-5.369a5.207,5.207,0,0,1,5.434,5.259q0,3.812-3.659,7.263a19.82,19.82,0,0,1-9.378,4.766.749.749,0,0,0-.657.788,2.853,2.853,0,0,0,.931,2,3.316,3.316,0,0,0,2.487.953q4.4,0,8.742-4.535a2.328,2.328,0,0,1,1.622-.876Q330.317,756.107,330.318,757.575Zm-14.7-3.878a13.293,13.293,0,0,0,6.1-2.958q2.641-2.258,2.641-4.1a1.851,1.851,0,0,0-.406-1.216,1.288,1.288,0,0,0-1.041-.493q-1.906,0-4.229,2.8A14.56,14.56,0,0,0,315.615,753.7Z" transform="translate(-188.895 -728.016)" fill="#341e12"/><path d="M355.186,754.907l.373-.7a37.17,37.17,0,0,1,5.708-8.644q3.056-3.319,5.971-3.319a5.364,5.364,0,0,1,3.649,1.227,3.742,3.742,0,0,1,1.414,2.914,3.288,3.288,0,0,1-.482,1.807,1.505,1.505,0,0,1-1.336.756A3.435,3.435,0,0,1,368,747.829a2.211,2.211,0,0,0-1.249-.723q-1.643,0-5.5,5.105a23.518,23.518,0,0,0-4.645,11.482,4.051,4.051,0,0,1-1.073,2.575,3.294,3.294,0,0,1-2.257.734,2.23,2.23,0,0,1-2.147-1.72,17.743,17.743,0,0,1-.635-5.62q0-1.6.087-4.316.088-2.564.5-6.267.109-.964.153-1.512a16.413,16.413,0,0,1,.449-2.947,3.135,3.135,0,0,1,1.172-1.5,3.286,3.286,0,0,1,2.038-.7,2.3,2.3,0,0,1,1.8.679,2.179,2.179,0,0,1,.613,1.49,19.282,19.282,0,0,1-.986,4.272,18.545,18.545,0,0,0-.591,2.673Z" transform="translate(-204.2 -728.679)" fill="#341e12"/><path d="M441.022,731.336a20.749,20.749,0,0,1,4.4,5.883,13.975,13.975,0,0,1,1.665,6.234,13.37,13.37,0,0,1-2.246,7.012,23.134,23.134,0,0,1-5.949,6.4q4.076,4.8,4.876,5.982a3.94,3.94,0,0,1,.8,1.622q0,.832-1.337,1.786a4.255,4.255,0,0,1-1.884.953,2.984,2.984,0,0,1-2.169-1.1,29.371,29.371,0,0,0-2.772-4.415q-1.873-2.552-1.939-2.552a4.808,4.808,0,0,0-.964.175,26.861,26.861,0,0,1-6.945,1.008,12.7,12.7,0,0,1-8-2.553,8.247,8.247,0,0,1-3.308-6.891q0-4.864,3.484-10.485a33.634,33.634,0,0,1,8.775-9.5q5.291-3.878,9.52-3.878a3.744,3.744,0,0,1,2.673,1.391A4.23,4.23,0,0,1,441.022,731.336ZM430.9,755.395a8.207,8.207,0,0,0-.788-1.052q-1.906-2.059-1.907-2.476,0-.81,1.347-1.8a4.731,4.731,0,0,1,2.838-.986,1.621,1.621,0,0,1,1.643,1.468,5.281,5.281,0,0,0,.876,1.885q.636.876.986.876,1.731,0,3.955-3.188a10.806,10.806,0,0,0,2.224-6.146,13.015,13.015,0,0,0-2.75-7.921q-2.749-3.692-4.24-3.692-2.717,0-6.157,3.035a26.394,26.394,0,0,0-5.795,7.438,16.85,16.85,0,0,0-2.356,7.691,4.971,4.971,0,0,0,1.632,3.988,5.865,5.865,0,0,0,3.955,1.4A22.44,22.44,0,0,0,430.9,755.395Z" transform="translate(-228.597 -722.944)" fill="#341e12"/><path d="M490.131,757.954a20.323,20.323,0,0,1-4.875,6.091,8.873,8.873,0,0,1-5.62,2.257,4.875,4.875,0,0,1-3.407-1.774q-1.72-1.775-1.72-5.456a35.951,35.951,0,0,1,1.314-7.866,28.422,28.422,0,0,0,1.139-6.6,2.879,2.879,0,0,1,2.739-1.84,2.588,2.588,0,0,1,2.027.843,2.56,2.56,0,0,1,.756,1.7,13.6,13.6,0,0,1-1.1,4.426,42.535,42.535,0,0,0-1.369,4.831,23.953,23.953,0,0,0-.734,4q0,2.914,1.2,2.914,1.907,0,5.149-3.659a18.239,18.239,0,0,0,4.229-7.494,19.412,19.412,0,0,1,1.753-4.908,2.452,2.452,0,0,1,2.169-1.161q2.279,0,2.279,2.542a6.108,6.108,0,0,1-.373,1.49,27.56,27.56,0,0,0-1.293,8.742q0,5.7,1.928,6.815a1.073,1.073,0,0,1,.636.92q0,.789-1.117,1.49a4.024,4.024,0,0,1-2.125.7q-1.731,0-2.663-2.443A18.874,18.874,0,0,1,490.131,757.954Z" transform="translate(-250.921 -728.878)" fill="#341e12"/><path d="M538.421,757.575q0,2.279-3.834,5.445a13.238,13.238,0,0,1-8.655,3.166,7.488,7.488,0,0,1-5.828-2.333,9.3,9.3,0,0,1-2.125-6.5,17.978,17.978,0,0,1,4.338-11.5q4.339-5.369,9.269-5.369a5.207,5.207,0,0,1,5.434,5.259q0,3.812-3.659,7.263a19.82,19.82,0,0,1-9.378,4.766.749.749,0,0,0-.657.788,2.856,2.856,0,0,0,.931,2,3.317,3.317,0,0,0,2.487.953q4.4,0,8.742-4.535a2.328,2.328,0,0,1,1.622-.876Q538.422,756.107,538.421,757.575Zm-14.7-3.878a13.293,13.293,0,0,0,6.1-2.958q2.641-2.258,2.641-4.1a1.851,1.851,0,0,0-.406-1.216,1.287,1.287,0,0,0-1.041-.493q-1.906,0-4.229,2.8A14.557,14.557,0,0,0,523.719,753.7Z" transform="translate(-267.299 -728.016)" fill="#341e12"/><path d="M572.642,757.954a20.324,20.324,0,0,1-4.875,6.091,8.873,8.873,0,0,1-5.62,2.257,4.876,4.876,0,0,1-3.407-1.774q-1.72-1.775-1.72-5.456a35.947,35.947,0,0,1,1.314-7.866,28.419,28.419,0,0,0,1.139-6.6,2.878,2.878,0,0,1,2.739-1.84,2.588,2.588,0,0,1,2.027.843,2.559,2.559,0,0,1,.755,1.7,13.617,13.617,0,0,1-1.1,4.426,42.546,42.546,0,0,0-1.37,4.831,23.994,23.994,0,0,0-.734,4q0,2.914,1.2,2.914,1.906,0,5.149-3.659a18.246,18.246,0,0,0,4.229-7.494,19.389,19.389,0,0,1,1.753-4.908,2.452,2.452,0,0,1,2.169-1.161q2.279,0,2.279,2.542a6.093,6.093,0,0,1-.372,1.49,27.561,27.561,0,0,0-1.293,8.742q0,5.7,1.928,6.815a1.074,1.074,0,0,1,.636.92q0,.789-1.117,1.49a4.026,4.026,0,0,1-2.125.7q-1.732,0-2.663-2.443A18.872,18.872,0,0,1,572.642,757.954Z" transform="translate(-282.008 -728.878)" fill="#341e12"/><path d="M620.932,757.575q0,2.279-3.834,5.445a13.238,13.238,0,0,1-8.655,3.166,7.49,7.49,0,0,1-5.829-2.333,9.3,9.3,0,0,1-2.125-6.5,17.978,17.978,0,0,1,4.338-11.5q4.339-5.369,9.268-5.369a5.208,5.208,0,0,1,5.434,5.259q0,3.812-3.659,7.263a19.823,19.823,0,0,1-9.378,4.766.75.75,0,0,0-.658.788,2.854,2.854,0,0,0,.932,2,3.316,3.316,0,0,0,2.487.953q4.4,0,8.742-4.535a2.328,2.328,0,0,1,1.622-.876Q620.932,756.107,620.932,757.575Zm-14.7-3.878a13.3,13.3,0,0,0,6.1-2.958q2.64-2.258,2.641-4.1a1.851,1.851,0,0,0-.406-1.216,1.287,1.287,0,0,0-1.041-.493q-1.906,0-4.229,2.8A14.557,14.557,0,0,0,606.23,753.7Z" transform="translate(-298.385 -728.016)" fill="#341e12"/></g></g><rect width="325.336" height="23.683" transform="translate(558.141 116.173)" fill="#341e12"/><path d="M-108.093,2.112l-.513-.41L-108.81.041q1.148-3.958,2.174-8l.841-.1a.988.988,0,0,1,.718.82q-1.333,4.061-2.379,8.224l-.205,1.128ZM-96.854.984l-.513-.533q-1.456-4.881-3.015-9.659l.718-.205.738.513A86.306,86.306,0,0,1-96.342.656Zm7.686.205-.841-.943q3.117-2.071,6.132-4.266h.205l.1-.308A12.41,12.41,0,0,1-79.919-6.4l.1.513A71.436,71.436,0,0,1-87.732.779h-.205l-.1.308-.1.1Zm1.025-5.824-1.148-1.148a42.735,42.735,0,0,1-3.322-4.881,1.212,1.212,0,0,1,1.251-.308Q-89.6-8.8-87.835-6.5l.328.615V-4.84Zm13.531,6.624-.841-.738-.41-1.969V-2.481l-.1-.533.1-.308-.1-.308.205-1.046V-6.85l.1-.1v-2.5l.1-.1v-1.148l.1-.41-.1-.1v-1.456l-.205-1.456a1.324,1.324,0,0,1,1.046-.205l.615.513.1.431v2.276l.1.308-.205.943v1.251l-.1.513.1.308a59.631,59.631,0,0,0,6.439,1.354h1.148l.738.533-.328.513-1.128.205-.1-.1H-68.48L-74.1-6.337-74.3-5.7v2.276l-.1.1v2.6l.615,2.174L-74,1.887Zm10.09-9.68-.841-.718q-.308-3.015-.841-5.927a.8.8,0,0,1,.841-.308l.615.41a13.786,13.786,0,0,1,.533,3.015v1.354l.1.1V-7.9Zm-3.24-.923-.82-.533q-.533-2.481-.841-5.086a1.349,1.349,0,0,1,1.046-.205l.615.513.1.738v1.128l.431,3.138Zm9.327,10.767-.82-.615V1.025a37.572,37.572,0,0,1,3.1-6.378q-1.969-.841-3.917-1.559l-.205-.718a1.11,1.11,0,0,1,.923-.205q1.948.718,3.917,1.436a37.376,37.376,0,0,1,4.122-7.2l.615-.1.615.308.1.615a36.867,36.867,0,0,0-4.327,6.993l4.225,2.174V-3.3l-.923.308-4.02-1.743a28.137,28.137,0,0,0-2.994,6.686ZM-37.644,1.7l-.82-.533V.861l.1-.123V-.513l-.226-1.148.123-.1V-2.933l-.328-1.989V-6.07l-.513-.431a75.087,75.087,0,0,0-5.373,5.25h-.615l-.738-.943q5.558-5.045,11.341-10.069l.738-.123.615.533v.533l-4.184,3.363v.82l.205.636v1.169l.205.718v1.066l.1.1v2.092l.1.1V-.082l.431,1.046A1.719,1.719,0,0,1-37.644,1.7Zm9.532.287-.841-.738-.41-1.969V-2.481l-.1-.533.1-.308-.1-.308.205-1.046V-6.85l.1-.1v-2.5l.1-.1v-1.148l.1-.41-.1-.1v-1.456l-.205-1.456a1.324,1.324,0,0,1,1.046-.205l.615.513.1.431v2.276l.1.308-.205.943v1.251l-.1.513.1.308A59.631,59.631,0,0,0-21.16-6.439h1.148l.738.533-.328.513-1.128.205-.1-.1H-21.98L-27.6-6.337-27.8-5.7v2.276l-.1.1v2.6l.615,2.174-.205.431Zm10.09-9.68-.841-.718q-.308-3.015-.841-5.927a.8.8,0,0,1,.841-.308l.615.41a13.786,13.786,0,0,1,.533,3.015v1.354l.1.1V-7.9Zm-3.24-.923-.82-.533q-.533-2.481-.841-5.086a1.349,1.349,0,0,1,1.046-.205l.615.513.1.738v1.128l.431,3.138ZM-9.946,2.379l-.574-.308-.267-.472a2.664,2.664,0,0,0,1-1.456l.226-1V-4.471l-.861-.226L-12.8-1.682h-.451l-.759-.431-.062-.267a19.952,19.952,0,0,0,3.9-5.332l-.185-.656h-.738l-3.363,3.445h-.492l-.841-.513v-.144l3.732-3.589.779-.513-.205-.759a4.068,4.068,0,0,1-1-1.415l.923-.308.595.513.513.656.369-.267,2.481-2.481H-6.5a.581.581,0,0,1,.185.636l-1.189.882A7.446,7.446,0,0,0-9.393-9.187q.513,1.538,1.025,3.035v1.374L-8.1-3.609v2.215l-.144.144V.041l-.964,2.03Zm6.768-.984-1.292-.267H-5.742L-6.583.554-6.665.185l.492-.308V-2.071l.164-.123V-3.65l.1-.123v-3.65A.981.981,0,0,1-4.8-7.608l1.292.123.779-.738a6.769,6.769,0,0,1-1-3.076l-1.456-.882-.041-.226A15.3,15.3,0,0,0-3.753-12.9l.144-1.107-.349-1.743.841-.287.656.41.041.041V-13.6a2.218,2.218,0,0,0,1.743.369l.472-.964-.1-.615.677-.1.615.533.123.7.595.205H2.974l.349.185.1.472-.7.39-.759-.123-.718.349A39.311,39.311,0,0,1,.39-7.937l3.056.82v1.579l-.144.1v1.559L2.769-1.025V.164L2.687.39a12.746,12.746,0,0,1-2.276,1ZM-3.117.1a7.954,7.954,0,0,0,.554-3.138l-1.292-.328-.615.185-.164,1.271.144.513L-4.676.041l1.313.308ZM1.025.041,1.477-.82V-2.666L-.861-3.138a8.985,8.985,0,0,0-.779,3.1A1.4,1.4,0,0,0,0,.451Zm.513-3.855.308-.513V-6.173a2.714,2.714,0,0,0-2.317-.82l-.636.841v1.784a5.632,5.632,0,0,0,2.4.759Zm-4.1-.595L-2.256-6.6h-1l-1.087.451-.144,1.415a1.429,1.429,0,0,0,1.723.554Zm1.969-3.1V-8.654l.554-3.322L-1.456-12.3l-.7.533V-9.7l.431,1.764ZM11.234,2.338,10.516,1.6V.984q1.559-4.9,3.322-9.68A.905.905,0,0,0,12.9-9l-3.015.738A19.076,19.076,0,0,0,7.809-4.737l-.943.308-.615-.615v-.738q1.764-2.6,3.527-5.291h.636l.718.615.1.41h1.559l.1-.1h1.046l1.354.636.1.1v1.148Q13.531-3.076,11.87,2.112Zm9.044-8.429a2.835,2.835,0,0,1-1.025-2.5v-2.276l-.431-2.3.738-.205.615.308a7.475,7.475,0,0,1,.533,2.194v1.661l-.1.1v1.661l.41,1.148ZM17.366-6.3q-1.025-3.22-1.764-6.562a1.324,1.324,0,0,1,1.046-.205l.513.431Q17.8-9.618,18.309-6.6A.905.905,0,0,1,17.366-6.3ZM31.9,1.189,30.877.677l-.1-.328q1.436-3.9,3.179-7.608h.41l.738.41.205.615a29.3,29.3,0,0,0-3.1,7.321ZM26.755-1.8l-.82-.615A13.559,13.559,0,0,0,24.5-6.439a1.61,1.61,0,0,1,1.128-.205q1.128,2.174,2.051,4.327l-.308.41Zm3.2-.615A10.189,10.189,0,0,1,28.5-6.952l.82-.1.533.41q.513,1.969,1.025,3.917A.976.976,0,0,1,29.954-2.42Zm10.66,4.143L40,1.21V.39q2.789-4.327,6.07-8.449h.205L46.992-9.5H45.556a17.254,17.254,0,0,0-4.532,1.23l-.923-.41L39.9-9.6q2.256-.636,4.532-1.148h4.327v-.718l-.513-2.563.205-.41h.718l.718.615V-12.8l.308,1.436v1.025a13.7,13.7,0,0,0,.615,2.276l-.82.308-.718-.513-.205-.718h-.205l-.513.615H48.14L47.3-7.034,45.454-4.758v.41q2.892,2.153,5.865,4.1V.595L50.4,1,49.781.7l-.513-.738L44.428-3.22a18.756,18.756,0,0,0-3.1,4.84ZM52.652-6.829a2.087,2.087,0,0,1-.615-1.538V-9.7a26.315,26.315,0,0,1-.718-4.02,1.287,1.287,0,0,1,1.025-.205,2.72,2.72,0,0,1,.841,2.256v1.025l.1.1V-9.29l.1.923-.1.308.1.923A.607.607,0,0,1,52.652-6.829ZM58.431.779A1.959,1.959,0,0,1,56.975.144L56.77-.574V-1.723a9.674,9.674,0,0,1,1.456-4.471,9.343,9.343,0,0,1,6.439-3.015,4.4,4.4,0,0,1,2.912,1.354,10.648,10.648,0,0,1,3.117,6.132V-.164l-.41.513h-.533a1.052,1.052,0,0,1-.82-.923,1.924,1.924,0,0,0,.308-1.354,10.878,10.878,0,0,0-2.912-5.414l-.841-.41A23,23,0,0,1,61.548-.369,3.555,3.555,0,0,1,59.682.779ZM59.682-.677A21.22,21.22,0,0,0,63.722-6.6l.328-1.046-.533-.205a12.152,12.152,0,0,0-4.061,2.6A9.752,9.752,0,0,0,58.123-.574a.764.764,0,0,0,.82.308ZM85.169,1.559,84.533.943V.615L85.046.1h.226l1.046-2.728-.431-.964A2.832,2.832,0,0,0,84-4.307l-.308.1-.308-.1L80.124-2.953A11.936,11.936,0,0,1,78.976.41a2.8,2.8,0,0,1-1.682.533L75.51.205l-.328-.738a11.746,11.746,0,0,1,3.363-3.261l.205-1.989-.1-.636.1-.1V-8.1l-.205-.41-.308-.1a10.991,10.991,0,0,1-2.953.841l-.738-.738v-.328A23.971,23.971,0,0,1,78.34-9.987l.1-.636-.308-1.354.943-.328a1.14,1.14,0,0,1,.841.964l-.123.308.226.636h.738a3.86,3.86,0,0,1,1.784-.431l.41.205.1.943-.841.431H80.637l-.41.205-.1.1v1.579l.1.1v1.374l-.1.1v1.148h.41a10.911,10.911,0,0,1,2.522-.943h1.579a5.012,5.012,0,0,1,2.317,1.046,3.357,3.357,0,0,1,.841,2.317,10.322,10.322,0,0,1-1.579,3.671ZM77.7-.431l.431-1.046h-.328l-.513.41-.123.636.431.1ZM88.635-5.988l-.964-.431a18.741,18.741,0,0,0-2.4-2.728v-.636l.943-.308.636.41.41.738.841.636A4.362,4.362,0,0,1,89.25-6.316Q89.147-5.886,88.635-5.988ZM99.479,2.317l-.636-.656V-2.974l-.328-1.661.554-.328.964.472.185.554h.861l1.169-.431.164-.677L101.8-6.562l.1-.349-.267-.841.144-.1v-1.5l-.554-2.338h-.8l-3.589.923-.267,1.189.082.308-.082.123v1.723q-1.025,4.553-1.907,9L94,1.661l-.779-.8V.431a62.517,62.517,0,0,0,1.907-10.746l-1.148-1.271v-.349a1.638,1.638,0,0,1,1.189-.185l.554.123,4.8-1.169.246-.226v-2.235l-.1-.492.9-.205a.817.817,0,0,1,.738.656l-.144.1v1.825a1.979,1.979,0,0,0,1.5.349l1.025-.267h1.784l.595-.123.9.574.062.349a1.572,1.572,0,0,1-1.333.513h-2.687a2.309,2.309,0,0,0-1.907.841l.861.738.369,2.379h1.21l.779-.267H106.9l.41.308v.533q-1.784.369-3.712.9l-.287,1.395.308.759.472.205h2.3l.41.41V-.41a2.339,2.339,0,0,1-.554,1.559l-.779.1-.431-.123a7.713,7.713,0,0,1-3.589,1.189Zm4.9-2.338.861-.8.1-2.051-.472-.636h-.492l-3.814,1.046-.164.205V.492l.451.615h.923Z" transform="translate(707.159 134.173)" fill="#fff"/><path d="M272.853,101.414c2.982-.454,4.149,3.088,5.018,4.439s3.281,5.307,5.307,14.378c1.254,1.544,3.088,4.149,4.825,4.632s5.211,1.013,6.851,2.75,3.763,3.619,6.369,3.522,10.518-3.57,13.317-4.439,4.632-1.447,6.465-1.061,1.833,1.061,2.026,1.737-.29,3.667-1.158,5.886-4.535,9.264-5.6,10.229-.289,1.254-1.447,2.605-1.978,1.447-3.329,2.895-1.4,2.8-2.171,3.956-1.737,2.123-2.605,3.57a7.5,7.5,0,0,0-.483,5.114,15.211,15.211,0,0,0,3.184,5.79c1.737,2.026,3.86,4.921,4.342-1.158s2.316-12.159,3.377-13.9,4.684-11.2,8.588-17.273a44.961,44.961,0,0,0,5.307-12.545c.868-3.088,1.93-12.014.868-14.282-2.112-4.512-4.728-8.4-5.018-11.387s-.386-5.307.965-6.562,4.246-2.605,7.527.675a37.176,37.176,0,0,1,10.808,20.072c2.123,10.808-4.535,27.792-5.983,31.748s-6.176,18.624-8.009,22.677-2.895,6.755-3.281,10.325-1.447,16.694-.483,20.554c2.509,2.026,3.281,4.728,4.053,10.132s-.772,17.273-1.93,22-1.833,17.273-2.026,20.458-.1,8.733-.965,11.532-2.343,4.12-2.412,5.5a7.131,7.131,0,0,0,.289,3.522c.579,1.448,1.061,1.544,1.061,4.439s-.965,10.132-1.737,11.869-4.342,8.492-6.948,8.781-2.895.434-3.184-.145c-.579,1.061-3.763,1.351-5.4-.193,1.351,2.895.29,6.417-.386,7.093s-2.026,1.254-2.8.675-.193-.579-.868.1a3.976,3.976,0,0,1-4.487.434c-1.64.579-3.233.386-5.452-.386s-2.987.108-3.956-2.7c-.483-1.4-1.4-4.777-1.013-5.549s.772-4.825,1.013-6.224c-2.7-.1-4.246-.241-5.114-1.689a62.472,62.472,0,0,0-.193,7.816c.193,1.93.579,3.667-.29,4.632s-2.316,3.426-5.983,2.268c-1.447,1.448-5.886,1.062-8.106.483s-4.342-1.978-4.439-3.522-1.351-3.763-.289-5.114,1.061-1.062,2.316-1.544,0-2.895.868-4.825,1.061-3.377.482-7.334-8.685-38.02-11.29-48.056-8.106-31.072-8.974-39.854-.675-16.115,2.123-21.326,5.79-6.658,5.79-8.685-1.061-1.833-1.64-8.106-1.061-8.588.386-13.124,5.5-10.229,7.141-12.545c0-2.219,1.061-2.991,1.255-3.667a11.933,11.933,0,0,1,.676-3.377c.675-1.447,1.737-3.57,1.833-4.921S268.414,102.09,272.853,101.414Z" transform="translate(211.535 -31.6)" fill="#341e12"/></g></svg>