<svg xmlns="http://www.w3.org/2000/svg" width="76.472" height="103.812" viewBox="0 0 76.472 103.812"><g transform="translate(-115.764 -88.945)"><path d="M258.634,93.718c1.141-.174,1.588,1.182,1.921,1.7a16.4,16.4,0,0,1,2.032,5.5c.48.591,1.182,1.588,1.847,1.773a5.873,5.873,0,0,1,2.623,1.053,3.412,3.412,0,0,0,2.438,1.348c1-.037,4.027-1.367,5.1-1.7a5.057,5.057,0,0,1,2.475-.406c.7.148.7.406.776.665a5.95,5.95,0,0,1-.443,2.253,22.452,22.452,0,0,1-2.143,3.916c-.406.369-.111.48-.554,1s-.757.554-1.274,1.108-.536,1.071-.831,1.515-.665.813-1,1.367a2.87,2.87,0,0,0-.185,1.958,5.823,5.823,0,0,0,1.219,2.216c.665.776,1.478,1.884,1.662-.443a15.8,15.8,0,0,1,1.293-5.319c.406-.665,1.793-4.288,3.288-6.612a17.212,17.212,0,0,0,2.032-4.8c.332-1.182.739-4.6.332-5.467-.808-1.727-1.81-3.214-1.921-4.359s-.148-2.032.369-2.512a1.929,1.929,0,0,1,2.881.259,14.232,14.232,0,0,1,4.137,7.684c.813,4.137-1.736,10.639-2.29,12.154s-2.364,7.13-3.066,8.681A12.187,12.187,0,0,0,280.1,122.2c-.148,1.367-.554,6.391-.185,7.868.96.776,1.256,1.81,1.552,3.879a31.544,31.544,0,0,1-.739,8.423,66.57,66.57,0,0,0-.776,7.831,24.267,24.267,0,0,1-.369,4.414c-.331,1.066-.9,1.577-.924,2.106a2.73,2.73,0,0,0,.111,1.348,2.9,2.9,0,0,1,.406,1.7,19.7,19.7,0,0,1-.665,4.544c-.3.665-1.662,3.251-2.66,3.362s-1.108.166-1.219-.055c-.222.406-1.441.517-2.069-.074a3.023,3.023,0,0,1-.148,2.715c-.259.259-.776.48-1.071.259s-.074-.222-.332.037a1.522,1.522,0,0,1-1.718.166,2.988,2.988,0,0,1-2.087-.148c-.85-.3-1.144.042-1.515-1.034a5.47,5.47,0,0,1-.388-2.124,20.739,20.739,0,0,0,.388-2.383c-1.034-.037-1.625-.092-1.958-.646a23.911,23.911,0,0,0-.074,2.992c.074.739.222,1.4-.111,1.773a1.9,1.9,0,0,1-2.29.868c-.554.554-2.253.406-3.1.185s-1.662-.757-1.7-1.348-.517-1.441-.111-1.958.406-.406.887-.591,0-1.108.332-1.847a4.323,4.323,0,0,0,.185-2.808c-.222-1.515-3.325-14.555-4.322-18.4s-3.1-11.895-3.436-15.257-.259-6.169.813-8.164,2.216-2.549,2.216-3.325-.406-.7-.628-3.1-.406-3.288.148-5.024a20.909,20.909,0,0,1,2.734-4.8,2.66,2.66,0,0,1,.48-1.4,4.568,4.568,0,0,1,.259-1.293,6.942,6.942,0,0,0,.7-1.884C256.75,98.484,256.935,93.977,258.634,93.718Z" transform="translate(-114.243 0)" fill="#341e12"/><g transform="translate(124.897 174.003)"><path d="M178.545,687.014h.242a7.13,7.13,0,0,0,.919-.043,2.156,2.156,0,0,1,.292-.02.932.932,0,0,1,.257.076.6.6,0,0,1,.231.128.234.234,0,0,1,.037.138.241.241,0,0,1-.05.173.322.322,0,0,1-.216.05.725.725,0,0,1-.206-.043.746.746,0,0,0-.222-.043q-.037,0-.242.017a2.593,2.593,0,0,1-.4-.017q-.222-.02-.332-.02-.153,0-.461.02t-.468.02a.781.781,0,0,1-.257-.035.148.148,0,0,1-.1-.158.243.243,0,0,1,.045-.124q.045-.071.3-.113a2.687,2.687,0,0,1,.372-.042Z" transform="translate(-177.573 -683.645)" fill="#341e12"/><path d="M203.774,680.152a.551.551,0,0,0-.377.226,5.969,5.969,0,0,0-.622,1.012,6.7,6.7,0,0,1-.712,1.2.451.451,0,0,1-.267.146.34.34,0,0,1-.392-.378,2.708,2.708,0,0,1,.053-.451,11.8,11.8,0,0,0,.183-2.114.5.5,0,0,1,.108-.28q.108-.155.2-.154a.277.277,0,0,1,.246.106.841.841,0,0,1,.073.428,9.47,9.47,0,0,1-.2,1.381,3.243,3.243,0,0,0-.066.438c0,.035.009.053.027.053a3.818,3.818,0,0,0,.461-.793,5.178,5.178,0,0,1,.727-1.135.933.933,0,0,1,.687-.329.568.568,0,0,1,.486.272,2.38,2.38,0,0,1,.274.992,5.933,5.933,0,0,0,.168,1.021q.075.2.237.2a.644.644,0,0,0,.259-.073.105.105,0,0,1,.04-.013q.143,0,.143.166a.44.44,0,0,1-.2.31.709.709,0,0,1-.471.164.5.5,0,0,1-.436-.224,3.23,3.23,0,0,1-.244-1.2Q204.072,680.152,203.774,680.152Z" transform="translate(-197.883 -677.175)" fill="#341e12"/><path d="M234.857,679.608q0,.338-.6.816a1.964,1.964,0,0,1-1.236.478,1.065,1.065,0,0,1-.825-.315,1.25,1.25,0,0,1-.29-.879,2.967,2.967,0,0,1,.641-1.806,1.782,1.782,0,0,1,1.4-.856.547.547,0,0,1,.564.554,1.348,1.348,0,0,1-.5.979,6.431,6.431,0,0,1-1.341.919.265.265,0,0,0-.173.232.61.61,0,0,0,.159.441.624.624,0,0,0,.471.166,2.077,2.077,0,0,0,1.457-.79q.109-.109.166-.109Q234.856,679.439,234.857,679.608Zm-2.307-.518q1.407-.836,1.407-1.344,0-.2-.179-.2a1.022,1.022,0,0,0-.689.448A2.588,2.588,0,0,0,232.55,679.09Z" transform="translate(-223.878 -675.204)" fill="#341e12"/><path d="M256.771,668.559q.043-.057.594-.534.521-.455.727-.661.767-.767,1.1-.767.259,0,.259.249a.438.438,0,0,1-.256.415,7.731,7.731,0,0,0-.886.562q-.554.394-.554.556a2.017,2.017,0,0,0,.392.5,4.579,4.579,0,0,0,.677.634.956.956,0,0,0,.554.2l.109,0q.116-.007.116.1a.41.41,0,0,1-.182.3.732.732,0,0,1-.481.151.691.691,0,0,1-.39-.134,4.882,4.882,0,0,1-.7-.725q-.4-.488-.5-.583a.276.276,0,0,0-.166-.094.815.815,0,0,0-.232.173.639.639,0,0,0-.214.262,6.4,6.4,0,0,0-.018.684V670a.28.28,0,0,1-.116.219.387.387,0,0,1-.252.1.293.293,0,0,1-.219-.081.24.24,0,0,1-.08-.168,3.971,3.971,0,0,1,.09-.564q.126-.641.232-1.716a20.377,20.377,0,0,1,.378-2.872q.133-.334.378-.334a.169.169,0,0,1,.144.093.444.444,0,0,1,.058.239,10.787,10.787,0,0,1-.229,1.411A22.054,22.054,0,0,0,256.771,668.559Z" transform="translate(-244.455 -664.58)" fill="#341e12"/><path d="M284.3,681.684a.944.944,0,0,1-.75-.345,1.266,1.266,0,0,1-.3-.853,2.938,2.938,0,0,1,.576-1.688,1.659,1.659,0,0,1,1.379-.831,1.056,1.056,0,0,1,.861.408,1.5,1.5,0,0,1,.33.973,2.315,2.315,0,0,1-.682,1.6A1.953,1.953,0,0,1,284.3,681.684Zm-.461-1.284a.972.972,0,0,0,.141.548.43.43,0,0,0,.373.212,1.391,1.391,0,0,0,.992-.543,1.744,1.744,0,0,0,.5-1.206,1.074,1.074,0,0,0-.191-.662.609.609,0,0,0-.513-.254,1.09,1.09,0,0,0-.918.656A2.483,2.483,0,0,0,283.835,680.4Z" transform="translate(-267.636 -675.989)" fill="#341e12"/><path d="M311.407,680.152a.552.552,0,0,0-.377.226,5.981,5.981,0,0,0-.622,1.012,6.7,6.7,0,0,1-.712,1.2.451.451,0,0,1-.267.146.34.34,0,0,1-.392-.378,2.708,2.708,0,0,1,.053-.451,11.793,11.793,0,0,0,.182-2.114.5.5,0,0,1,.108-.28q.108-.155.2-.154a.277.277,0,0,1,.246.106.841.841,0,0,1,.073.428,9.465,9.465,0,0,1-.2,1.381,3.22,3.22,0,0,0-.066.438c0,.035.009.053.027.053a3.827,3.827,0,0,0,.461-.793,5.172,5.172,0,0,1,.727-1.135.933.933,0,0,1,.687-.329.568.568,0,0,1,.486.272,2.383,2.383,0,0,1,.274.992,5.931,5.931,0,0,0,.168,1.021q.075.2.237.2a.644.644,0,0,0,.259-.073.1.1,0,0,1,.04-.013q.143,0,.143.166a.44.44,0,0,1-.2.31.709.709,0,0,1-.471.164.5.5,0,0,1-.436-.224,3.227,3.227,0,0,1-.244-1.2Q311.705,680.152,311.407,680.152Z" transform="translate(-289.611 -677.175)" fill="#341e12"/><path d="M340.808,681.684a.944.944,0,0,1-.75-.345,1.266,1.266,0,0,1-.3-.853,2.938,2.938,0,0,1,.576-1.688,1.659,1.659,0,0,1,1.379-.831,1.056,1.056,0,0,1,.861.408,1.5,1.5,0,0,1,.33.973,2.314,2.314,0,0,1-.682,1.6A1.953,1.953,0,0,1,340.808,681.684Zm-.461-1.284a.972.972,0,0,0,.141.548.43.43,0,0,0,.373.212,1.391,1.391,0,0,0,.992-.543,1.744,1.744,0,0,0,.5-1.206,1.074,1.074,0,0,0-.191-.662.609.609,0,0,0-.513-.254,1.09,1.09,0,0,0-.918.656A2.483,2.483,0,0,0,340.347,680.4Z" transform="translate(-315.797 -675.989)" fill="#341e12"/><path d="M366.493,668.559q.043-.057.594-.534.521-.455.727-.661.767-.767,1.1-.767.259,0,.259.249a.438.438,0,0,1-.256.415,7.7,7.7,0,0,0-.886.562q-.554.394-.554.556a2.017,2.017,0,0,0,.392.5,4.581,4.581,0,0,0,.677.634.956.956,0,0,0,.554.2l.109,0c.077,0,.116.03.116.1a.41.41,0,0,1-.182.3.732.732,0,0,1-.481.151.691.691,0,0,1-.39-.134,4.9,4.9,0,0,1-.7-.725q-.4-.488-.5-.583a.276.276,0,0,0-.166-.094.815.815,0,0,0-.232.173.638.638,0,0,0-.214.262,6.412,6.412,0,0,0-.018.684V670a.281.281,0,0,1-.116.219.387.387,0,0,1-.252.1.293.293,0,0,1-.219-.081.24.24,0,0,1-.08-.168,3.986,3.986,0,0,1,.09-.564q.126-.641.232-1.716a20.416,20.416,0,0,1,.378-2.872q.133-.334.378-.334a.169.169,0,0,1,.144.093.444.444,0,0,1,.058.239,10.816,10.816,0,0,1-.229,1.411A22.054,22.054,0,0,0,366.493,668.559Z" transform="translate(-337.964 -664.58)" fill="#341e12"/><path d="M394.019,681.684a.944.944,0,0,1-.75-.345,1.266,1.266,0,0,1-.3-.853,2.938,2.938,0,0,1,.576-1.688,1.659,1.659,0,0,1,1.379-.831,1.056,1.056,0,0,1,.861.408,1.5,1.5,0,0,1,.33.973,2.315,2.315,0,0,1-.682,1.6A1.953,1.953,0,0,1,394.019,681.684Zm-.461-1.284a.971.971,0,0,0,.141.548.43.43,0,0,0,.373.212,1.39,1.39,0,0,0,.992-.543,1.744,1.744,0,0,0,.5-1.206,1.075,1.075,0,0,0-.191-.662.609.609,0,0,0-.513-.254,1.09,1.09,0,0,0-.918.656A2.483,2.483,0,0,0,393.558,680.4Z" transform="translate(-361.146 -675.989)" fill="#341e12"/><path d="M422.619,678.739q-.309.007-1.321,1.829a6.131,6.131,0,0,1-.4.669.5.5,0,0,1-.207.1.951.951,0,0,1-.25.043q-.222,0-.222-.866a13.066,13.066,0,0,1,.209-1.766,5.18,5.18,0,0,0,.086-.74q0-.219.2-.219.368,0,.368.531a7.309,7.309,0,0,1-.123.976q-.142.83-.146,1.009a4.775,4.775,0,0,0,.6-.873,6.5,6.5,0,0,1,.831-1.17.812.812,0,0,1,.553-.247q.216,0,.343.289a4.683,4.683,0,0,1,.154,1.377,1.533,1.533,0,0,0,.05.4c.029.089.05.133.063.133q.156,0,.677-1.062a3.848,3.848,0,0,1,.543-.853.779.779,0,0,1,.586-.292.409.409,0,0,1,.392.277,2.8,2.8,0,0,1,.176.821,7.682,7.682,0,0,0,.154,1.009.786.786,0,0,0,.383.587q.189.09.189.209a.328.328,0,0,1-.159.239.5.5,0,0,1-.292.123.582.582,0,0,1-.475-.325,3.7,3.7,0,0,1-.315-1.407,5.668,5.668,0,0,0-.09-.617q-.043-.182-.136-.182-.139,0-.33.266a10.662,10.662,0,0,0-.616,1.079,5.852,5.852,0,0,1-.5.844.459.459,0,0,1-.33.211.351.351,0,0,1-.255-.114.52.52,0,0,1-.143-.276q-.03-.161-.063-.791A3.206,3.206,0,0,0,422.619,678.739Z" transform="translate(-384.365 -675.836)" fill="#341e12"/><path d="M467.309,681.684a.944.944,0,0,1-.75-.345,1.266,1.266,0,0,1-.3-.853,2.937,2.937,0,0,1,.576-1.688,1.66,1.66,0,0,1,1.379-.831,1.056,1.056,0,0,1,.861.408,1.5,1.5,0,0,1,.33.973,2.315,2.315,0,0,1-.682,1.6A1.953,1.953,0,0,1,467.309,681.684Zm-.461-1.284a.972.972,0,0,0,.141.548.43.43,0,0,0,.373.212,1.39,1.39,0,0,0,.992-.543,1.744,1.744,0,0,0,.5-1.206,1.074,1.074,0,0,0-.191-.662.609.609,0,0,0-.513-.254,1.09,1.09,0,0,0-.918.656A2.485,2.485,0,0,0,466.848,680.4Z" transform="translate(-423.606 -675.989)" fill="#341e12"/><path d="M494.419,680.152a.552.552,0,0,0-.377.226,5.953,5.953,0,0,0-.622,1.012,6.706,6.706,0,0,1-.712,1.2.451.451,0,0,1-.267.146.34.34,0,0,1-.392-.378,2.727,2.727,0,0,1,.053-.451,11.8,11.8,0,0,0,.183-2.114.5.5,0,0,1,.108-.28q.108-.155.2-.154a.276.276,0,0,1,.246.106.841.841,0,0,1,.073.428,9.476,9.476,0,0,1-.2,1.381,3.241,3.241,0,0,0-.066.438c0,.035.009.053.027.053a3.808,3.808,0,0,0,.461-.793,5.181,5.181,0,0,1,.727-1.135.933.933,0,0,1,.687-.329.568.568,0,0,1,.486.272,2.38,2.38,0,0,1,.274.992,5.947,5.947,0,0,0,.168,1.021q.075.2.237.2a.643.643,0,0,0,.259-.073.106.106,0,0,1,.04-.013q.143,0,.143.166a.44.44,0,0,1-.2.31.708.708,0,0,1-.471.164.5.5,0,0,1-.437-.224,3.232,3.232,0,0,1-.244-1.2Q494.717,680.152,494.419,680.152Z" transform="translate(-445.581 -677.175)" fill="#341e12"/><path d="M523.821,681.684a.944.944,0,0,1-.75-.345,1.266,1.266,0,0,1-.3-.853,2.938,2.938,0,0,1,.576-1.688,1.66,1.66,0,0,1,1.379-.831,1.056,1.056,0,0,1,.861.408,1.5,1.5,0,0,1,.33.973,2.316,2.316,0,0,1-.682,1.6A1.953,1.953,0,0,1,523.821,681.684Zm-.461-1.284a.972.972,0,0,0,.141.548.43.43,0,0,0,.373.212,1.391,1.391,0,0,0,.992-.543,1.744,1.744,0,0,0,.5-1.206,1.075,1.075,0,0,0-.191-.662.609.609,0,0,0-.513-.254,1.09,1.09,0,0,0-.918.656A2.486,2.486,0,0,0,523.359,680.4Z" transform="translate(-471.767 -675.989)" fill="#341e12"/><path d="M555.193,687.014h.242a7.13,7.13,0,0,0,.919-.043,2.153,2.153,0,0,1,.292-.02.932.932,0,0,1,.257.076.6.6,0,0,1,.231.128.233.233,0,0,1,.037.138.241.241,0,0,1-.05.173.322.322,0,0,1-.216.05.725.725,0,0,1-.206-.043.746.746,0,0,0-.222-.043q-.037,0-.242.017a2.592,2.592,0,0,1-.4-.017q-.222-.02-.332-.02-.153,0-.461.02t-.468.02a.782.782,0,0,1-.257-.035.148.148,0,0,1-.1-.158.245.245,0,0,1,.045-.124q.045-.071.3-.113a2.69,2.69,0,0,1,.372-.042Z" transform="translate(-498.566 -683.645)" fill="#341e12"/></g><g transform="translate(115.764 182.263)"><path d="M117.5,720.48q.561,0,.561.613a2.606,2.606,0,0,1-.078.605q-.078.325-.426,1.608a14.1,14.1,0,0,0-.387,2.029,15.278,15.278,0,0,0-.133,1.717,14.833,14.833,0,0,0,.1,1.569q.026.244.026.307a.721.721,0,0,1-.229.535.7.7,0,0,1-.5.223.527.527,0,0,1-.519-.348,3.316,3.316,0,0,1-.151-1.195,25.621,25.621,0,0,1,.429-4.3,12.49,12.49,0,0,1,.7-2.919Q117.167,720.48,117.5,720.48Z" transform="translate(-115.764 -720.48)" fill="#341e12"/><path d="M136.7,724.57a3.841,3.841,0,0,1-.151.841v-.005a3.7,3.7,0,0,1-.379.956v-.005a.758.758,0,0,1-.67.478.617.617,0,0,1-.4-.138.414.414,0,0,1-.169-.33.66.66,0,0,1,.086-.283.872.872,0,0,1,.184-.257,1.242,1.242,0,0,0,.41-.961q0-.2-.353-.509-.249-.218-.249-.307l-.036-.26a1.276,1.276,0,0,1,.026-.249q.036-.119.265-.236a.9.9,0,0,1,.4-.117q.208,0,.722.556l.062.073a1.282,1.282,0,0,1,.192.369.974.974,0,0,1,.062.379Z" transform="translate(-132.093 -722.788)" fill="#341e12"/><path d="M155.72,745.183q-1.366,1.8-2.639,1.8a1.055,1.055,0,0,1-.805-.369,1.338,1.338,0,0,1-.338-.94,4.844,4.844,0,0,1,1.226-2.932,3.324,3.324,0,0,1,2.473-1.556.808.808,0,0,1,.831.639q.6,0,.6.457a4.845,4.845,0,0,1-.114.79,9.469,9.469,0,0,0-.208,1.709,3.3,3.3,0,0,0,.091.935,3.375,3.375,0,0,0,.133.353.516.516,0,0,0,.249.177.3.3,0,0,1,.208.275.518.518,0,0,1-.267.442,1,1,0,0,1-.558.177Q155.621,747.141,155.72,745.183Zm-.312-2.883q-.525,0-1.364,1.161a3.616,3.616,0,0,0-.839,1.971q0,.426.177.426.613,0,1.509-1.088a3.206,3.206,0,0,0,.9-1.9.664.664,0,0,0-.117-.413A.331.331,0,0,0,155.408,742.3Z" transform="translate(-146.593 -738.128)" fill="#341e12"/><path d="M195.741,732.428a6,6,0,0,0-.293,1.159,10.7,10.7,0,0,0-.247,1.4,1.369,1.369,0,0,0,.091.595.313.313,0,0,0,.3.169,1.564,1.564,0,0,0,.558-.1,2.859,2.859,0,0,0,.7-.455.787.787,0,0,1,.457-.223.337.337,0,0,1,.241.086.267.267,0,0,1,.091.2q0,.457-.738,1.036a2.485,2.485,0,0,1-1.558.579,1.329,1.329,0,0,1-1.047-.405,1.693,1.693,0,0,1-.361-1.164,14.69,14.69,0,0,1,.525-2.8q-.332.037-.462.037h-.109a.907.907,0,0,1-.486-.156.545.545,0,0,1-.247-.5q0-.437.494-.436l1.112-.042q.218-.629.462-1.647.145-.634.66-.634a.578.578,0,0,1,.447.174.557.557,0,0,1,.161.387q0,.083-.442,1.605,1.652-.145,1.813-.145a.57.57,0,0,1,.364.081.414.414,0,0,1,.088.309q0,.462-.784.587Z" transform="translate(-181.723 -727.851)" fill="#341e12"/><path d="M234.128,744.536q0,.54-.909,1.291a3.138,3.138,0,0,1-2.052.751,1.775,1.775,0,0,1-1.382-.553,2.2,2.2,0,0,1-.5-1.54,4.262,4.262,0,0,1,1.029-2.727,2.872,2.872,0,0,1,2.2-1.273,1.235,1.235,0,0,1,1.288,1.247,2.373,2.373,0,0,1-.868,1.722,4.7,4.7,0,0,1-2.223,1.13.178.178,0,0,0-.156.187.676.676,0,0,0,.221.475.786.786,0,0,0,.59.226,2.927,2.927,0,0,0,2.073-1.075.551.551,0,0,1,.384-.208Q234.128,744.188,234.128,744.536Zm-3.486-.919a3.153,3.153,0,0,0,1.447-.7,1.429,1.429,0,0,0,.626-.972.439.439,0,0,0-.1-.288.305.305,0,0,0-.247-.117q-.452,0-1,.665A3.448,3.448,0,0,0,230.642,743.617Z" transform="translate(-212.507 -737.528)" fill="#341e12"/><path d="M271.5,720.48q.561,0,.561.613a2.6,2.6,0,0,1-.078.605q-.078.325-.426,1.608a14.074,14.074,0,0,0-.387,2.029,15.3,15.3,0,0,0-.132,1.717,14.831,14.831,0,0,0,.1,1.569q.026.244.026.307a.722.722,0,0,1-.229.535.7.7,0,0,1-.5.223.527.527,0,0,1-.52-.348,3.318,3.318,0,0,1-.151-1.195,25.621,25.621,0,0,1,.429-4.3,12.505,12.505,0,0,1,.7-2.919Q271.166,720.48,271.5,720.48Z" transform="translate(-247.008 -720.48)" fill="#341e12"/><path d="M290.337,728.043v.005q.166-.945.166-1.08a1.158,1.158,0,0,1,.169-.644.531.531,0,0,1,.47-.26.83.83,0,0,1,.551.166.483.483,0,0,1,.2.374,3.953,3.953,0,0,1-.192.857l-.031.114a9.326,9.326,0,0,0-.343,1.636q-.057.634-.057,1.023a4.439,4.439,0,0,0,.109.847.985.985,0,0,1,.016.156q0,.119-.226.322a.717.717,0,0,1-.486.2q-.686,0-.686-1.039a11.446,11.446,0,0,1,.249-2.151Q290.3,728.293,290.337,728.043Zm2.509-4.27a.825.825,0,0,1-.332.647.97.97,0,0,1-.577.278.737.737,0,0,1-.553-.26.772.772,0,0,1-.241-.52.8.8,0,0,1,.239-.605.947.947,0,0,1,.686-.231.784.784,0,0,1,.564.205A.649.649,0,0,1,292.846,723.773Z" transform="translate(-264.249 -722.698)" fill="#341e12"/><path d="M314.722,744.536q0,.54-.909,1.291a3.139,3.139,0,0,1-2.052.751,1.775,1.775,0,0,1-1.382-.553,2.2,2.2,0,0,1-.5-1.54,4.262,4.262,0,0,1,1.028-2.727,2.873,2.873,0,0,1,2.2-1.273,1.234,1.234,0,0,1,1.288,1.247,2.373,2.373,0,0,1-.868,1.722,4.7,4.7,0,0,1-2.223,1.13.178.178,0,0,0-.156.187.676.676,0,0,0,.221.475.786.786,0,0,0,.59.226,2.927,2.927,0,0,0,2.073-1.075.552.552,0,0,1,.384-.208Q314.722,744.188,314.722,744.536Zm-3.486-.919a3.152,3.152,0,0,0,1.447-.7,1.429,1.429,0,0,0,.626-.972.439.439,0,0,0-.1-.288.305.305,0,0,0-.247-.117q-.452,0-1,.665A3.452,3.452,0,0,0,311.236,743.617Z" transform="translate(-281.192 -737.528)" fill="#341e12"/><path d="M351.609,745.245l.088-.166a8.812,8.812,0,0,1,1.353-2.049,2.009,2.009,0,0,1,1.416-.787,1.272,1.272,0,0,1,.865.291.887.887,0,0,1,.335.691.779.779,0,0,1-.114.428.357.357,0,0,1-.317.179.814.814,0,0,1-.587-.265.525.525,0,0,0-.3-.171q-.39,0-1.3,1.21a5.576,5.576,0,0,0-1.1,2.722.961.961,0,0,1-.254.61.781.781,0,0,1-.535.174.529.529,0,0,1-.509-.408,4.207,4.207,0,0,1-.151-1.333q0-.379.021-1.023.021-.608.12-1.486.026-.229.036-.358a3.89,3.89,0,0,1,.107-.7.743.743,0,0,1,.278-.356.78.78,0,0,1,.483-.166.545.545,0,0,1,.426.161.517.517,0,0,1,.145.353,4.572,4.572,0,0,1-.234,1.013,4.4,4.4,0,0,0-.14.634Z" transform="translate(-315.812 -739.026)" fill="#341e12"/><path d="M421.363,728.043a4.919,4.919,0,0,1,1.044,1.395,3.313,3.313,0,0,1,.395,1.478,3.17,3.17,0,0,1-.533,1.662,5.485,5.485,0,0,1-1.41,1.517q.966,1.138,1.156,1.418a.934.934,0,0,1,.19.384q0,.2-.317.423a1.009,1.009,0,0,1-.447.226.707.707,0,0,1-.514-.26,6.961,6.961,0,0,0-.657-1.047q-.444-.605-.46-.605a1.14,1.14,0,0,0-.229.042,6.368,6.368,0,0,1-1.647.239,3.012,3.012,0,0,1-1.9-.605,1.955,1.955,0,0,1-.784-1.634,4.777,4.777,0,0,1,.826-2.486,7.976,7.976,0,0,1,2.081-2.252,3.968,3.968,0,0,1,2.257-.919.888.888,0,0,1,.634.33A1,1,0,0,1,421.363,728.043Zm-2.4,5.7a1.94,1.94,0,0,0-.187-.249q-.452-.488-.452-.587,0-.192.319-.426a1.121,1.121,0,0,1,.673-.234.384.384,0,0,1,.39.348,1.252,1.252,0,0,0,.208.447q.151.208.234.208.411,0,.938-.756a2.562,2.562,0,0,0,.527-1.457,3.086,3.086,0,0,0-.652-1.878q-.652-.875-1.005-.875a2.35,2.35,0,0,0-1.46.719,6.256,6.256,0,0,0-1.374,1.764,4,4,0,0,0-.559,1.823,1.179,1.179,0,0,0,.387.946,1.39,1.39,0,0,0,.938.332A5.319,5.319,0,0,0,418.963,733.747Z" transform="translate(-371 -726.054)" fill="#341e12"/><path d="M478.213,746.37a4.818,4.818,0,0,1-1.156,1.444,2.1,2.1,0,0,1-1.333.535,1.156,1.156,0,0,1-.808-.421,1.8,1.8,0,0,1-.408-1.294,8.523,8.523,0,0,1,.312-1.865,6.74,6.74,0,0,0,.27-1.564.683.683,0,0,1,.649-.436.614.614,0,0,1,.481.2.607.607,0,0,1,.179.4,3.225,3.225,0,0,1-.26,1.049,10.083,10.083,0,0,0-.325,1.145,5.678,5.678,0,0,0-.174.948q0,.691.286.691.452,0,1.221-.868a4.323,4.323,0,0,0,1-1.777,4.6,4.6,0,0,1,.416-1.164.581.581,0,0,1,.514-.275q.54,0,.54.6a1.447,1.447,0,0,1-.088.353,6.534,6.534,0,0,0-.306,2.073q0,1.351.457,1.616a.255.255,0,0,1,.151.218q0,.187-.265.353a.954.954,0,0,1-.5.166q-.41,0-.631-.579A4.476,4.476,0,0,1,478.213,746.37Z" transform="translate(-421.499 -739.476)" fill="#341e12"/><path d="M522.826,744.536q0,.54-.909,1.291a3.139,3.139,0,0,1-2.052.751,1.775,1.775,0,0,1-1.382-.553,2.2,2.2,0,0,1-.5-1.54,4.262,4.262,0,0,1,1.028-2.727,2.873,2.873,0,0,1,2.2-1.273,1.234,1.234,0,0,1,1.288,1.247,2.373,2.373,0,0,1-.868,1.722,4.7,4.7,0,0,1-2.223,1.13.178.178,0,0,0-.156.187.677.677,0,0,0,.221.475.786.786,0,0,0,.59.226,2.927,2.927,0,0,0,2.073-1.075.552.552,0,0,1,.385-.208Q522.826,744.188,522.826,744.536Zm-3.486-.919a3.152,3.152,0,0,0,1.447-.7,1.429,1.429,0,0,0,.626-.972.439.439,0,0,0-.1-.288.3.3,0,0,0-.247-.117q-.452,0-1,.665A3.453,3.453,0,0,0,519.34,743.617Z" transform="translate(-458.546 -737.528)" fill="#341e12"/><path d="M560.724,746.37a4.819,4.819,0,0,1-1.156,1.444,2.1,2.1,0,0,1-1.333.535,1.156,1.156,0,0,1-.808-.421,1.8,1.8,0,0,1-.408-1.294,8.523,8.523,0,0,1,.312-1.865,6.735,6.735,0,0,0,.27-1.564.682.682,0,0,1,.649-.436.613.613,0,0,1,.48.2.606.606,0,0,1,.179.4,3.228,3.228,0,0,1-.26,1.049,10.077,10.077,0,0,0-.325,1.145,5.693,5.693,0,0,0-.174.948q0,.691.286.691.452,0,1.221-.868a4.325,4.325,0,0,0,1-1.777,4.6,4.6,0,0,1,.416-1.164.581.581,0,0,1,.514-.275q.54,0,.54.6a1.445,1.445,0,0,1-.088.353,6.532,6.532,0,0,0-.307,2.073q0,1.351.457,1.616a.255.255,0,0,1,.151.218q0,.187-.265.353a.955.955,0,0,1-.5.166q-.41,0-.631-.579A4.477,4.477,0,0,1,560.724,746.37Z" transform="translate(-491.818 -739.476)" fill="#341e12"/><path d="M605.336,744.536q0,.54-.909,1.291a3.139,3.139,0,0,1-2.052.751,1.776,1.776,0,0,1-1.382-.553,2.2,2.2,0,0,1-.5-1.54,4.263,4.263,0,0,1,1.029-2.727,2.873,2.873,0,0,1,2.2-1.273A1.235,1.235,0,0,1,605,741.731a2.373,2.373,0,0,1-.868,1.722,4.7,4.7,0,0,1-2.223,1.13.178.178,0,0,0-.156.187.677.677,0,0,0,.221.475.787.787,0,0,0,.59.226,2.927,2.927,0,0,0,2.073-1.075.552.552,0,0,1,.384-.208Q605.336,744.188,605.336,744.536Zm-3.486-.919a3.153,3.153,0,0,0,1.447-.7,1.429,1.429,0,0,0,.626-.972.439.439,0,0,0-.1-.288.305.305,0,0,0-.247-.117q-.452,0-1,.665A3.452,3.452,0,0,0,601.85,743.617Z" transform="translate(-528.864 -737.528)" fill="#341e12"/></g></g></svg>