<svg xmlns="http://www.w3.org/2000/svg" width="300" height="100" viewBox="0 0 300 100"><g transform="translate(-256 -39)"><rect width="300" height="100" transform="translate(256 39)" fill="#eee"/><path d="M13.75.6c6.45,0,10.6-4.45,10.6-10.2,0-5.6-2.8-9.15-6.3-12.15L14.7-24.7c-2.35-2.05-3.9-3.65-3.9-6.65,0-1.4.75-3.15,2.4-3.15,2.3,0,2.55,2.3,2.65,5.9l7.7-.95c-.15-4.75-1.4-11.5-10.05-11.5-7,0-11.35,3.75-11.35,10.6,0,4.9,2.35,7.95,5.45,10.55l3.5,3.05c2.75,2.35,4.45,4.35,4.45,7.7,0,1.4-.4,2.95-2.25,2.95-2.25,0-3.45-1.95-3.55-7.2L2.1-12.25C2.4-3.25,6.1.6,13.75.6Zm15-.6H37.7V-40.5H28.75ZM47.4,0h9V-33.85h6.05V-40.5H41.3v6.65h6.1ZM66,0H84.3V-6.05H74.95v-12.1H82v-6.2H74.95V-34.4H84.2v-6.1H66Zm35.15,0H119.4V-6.05h-9.3V-40.5h-8.95Zm33.1.6c9.15,0,12.25-5,12.25-13.35V-27.8c0-8.35-3.1-13.25-12.25-13.25-9.1,0-12.15,4.9-12.15,13.25v15.05C122.1-4.4,125.15.6,134.25.6Zm0-6.35c-2.8,0-3-2.45-3-4.75V-30c0-2.4.35-4.75,3-4.75,2.8,0,3.1,2.35,3.1,4.75v19.5C137.35-8.2,137.05-5.75,134.25-5.75ZM162.5.6a6.6,6.6,0,0,0,6.55-3.95l.5,3.35h5.9V-21h-11.7v5.25h3.65V-11c0,2.75-.75,5.25-3.5,5.25s-3.35-2.4-3.35-5.15V-29.65c0-2.45.2-5.1,3.1-5.1,2.8,0,3,2.3,3,4.85v3.3h8.75v-2.6c0-7.05-2.9-11.85-11.85-11.85-9.25,0-12.15,5.45-12.15,14.05v13.6C151.4-5.05,154.1.6,162.5.6Zm30.15,0c9.15,0,12.25-5,12.25-13.35V-27.8c0-8.35-3.1-13.25-12.25-13.25-9.1,0-12.15,4.9-12.15,13.25v15.05C180.5-4.4,183.55.6,192.65.6Zm0-6.35c-2.8,0-3-2.45-3-4.75V-30c0-2.4.35-4.75,3-4.75,2.8,0,3.1,2.35,3.1,4.75v19.5C195.75-8.2,195.45-5.75,192.65-5.75Z" transform="translate(303 109)" fill="#707070"/></g></svg>