<svg xmlns="http://www.w3.org/2000/svg" width="60" height="48" viewBox="0 0 60 48"><g transform="translate(1.509 -1.601)"><rect width="60" height="48" transform="translate(-1.509 1.601)" fill="none"/><ellipse cx="6.148" cy="7.233" rx="6.148" ry="7.233" transform="translate(-0.465 21.712) rotate(-14.589)" fill="#f5efd7"/><ellipse cx="7.233" cy="6.148" rx="7.233" ry="6.148" transform="translate(40.8 29.688) rotate(-69.1)" fill="#f5efd7"/><ellipse cx="6.407" cy="8.265" rx="6.407" ry="8.265" transform="translate(11.096 6.3) rotate(-7.651)" fill="#f5efd7"/><ellipse cx="8.265" cy="6.407" rx="8.265" ry="6.407" transform="matrix(0.096, -0.995, 0.995, 0.096, 28.536, 21.249)" fill="#f5efd7"/><path d="M24.79,15.727c5.238-.471,6.706,3.353,10.258,6.97,2.158,2.2,9.27,3.945,6.313,10.258-2.778,5.923-9.074,1.841-15.321,1.776-7.627-.082-11.045,4.208-15.517-1.578-2.489-3.223-.722-9.009,3.945-10.719S18.939,16.253,24.79,15.727Z" transform="translate(2.735 10.449)" fill="#f5efd7"/></g></svg>