<svg xmlns="http://www.w3.org/2000/svg" width="30.312" height="67.059" viewBox="0 0 30.312 67.059"><path d="M257.029,92.85c.934-.142,1.3.967,1.571,1.39a13.413,13.413,0,0,1,1.662,4.5c.393.484.967,1.3,1.511,1.451a4.8,4.8,0,0,1,2.146.861,2.791,2.791,0,0,0,1.995,1.1,30.664,30.664,0,0,0,4.17-1.39,4.137,4.137,0,0,1,2.025-.332c.574.121.574.332.635.544a4.867,4.867,0,0,1-.363,1.843,18.363,18.363,0,0,1-1.753,3.2c-.332.3-.091.393-.453.816s-.62.453-1.043.907-.438.876-.68,1.239-.544.665-.816,1.118a2.348,2.348,0,0,0-.151,1.6,4.764,4.764,0,0,0,1,1.813c.544.635,1.209,1.541,1.36-.363a12.927,12.927,0,0,1,1.058-4.352c.332-.544,1.467-3.508,2.69-5.409a14.08,14.08,0,0,0,1.662-3.929c.272-.967.6-3.762.272-4.473-.661-1.413-1.481-2.629-1.571-3.566s-.121-1.662.3-2.055a1.578,1.578,0,0,1,2.357.212A11.642,11.642,0,0,1,280,95.872c.665,3.385-1.42,8.7-1.874,9.942s-1.934,5.832-2.508,7.1a9.968,9.968,0,0,0-1.027,3.234c-.121,1.118-.453,5.228-.151,6.437.786.635,1.027,1.481,1.269,3.173a25.805,25.805,0,0,1-.6,6.89,54.445,54.445,0,0,0-.635,6.407,19.853,19.853,0,0,1-.3,3.611c-.271.872-.734,1.29-.755,1.723a2.233,2.233,0,0,0,.091,1.1,2.368,2.368,0,0,1,.332,1.39,16.111,16.111,0,0,1-.544,3.717c-.242.544-1.36,2.659-2.176,2.75s-.907.136-1-.045c-.181.332-1.179.423-1.692-.06a2.473,2.473,0,0,1-.121,2.221c-.212.212-.635.393-.876.212s-.06-.181-.272.03a1.245,1.245,0,0,1-1.405.136,2.444,2.444,0,0,1-1.707-.121c-.7-.242-.935.034-1.239-.846a4.474,4.474,0,0,1-.317-1.738,16.97,16.97,0,0,0,.317-1.949c-.846-.03-1.33-.076-1.6-.529a19.567,19.567,0,0,0-.06,2.448c.06.6.181,1.148-.091,1.451a1.557,1.557,0,0,1-1.874.71c-.453.453-1.843.332-2.538.151s-1.36-.62-1.39-1.1-.423-1.179-.091-1.6.332-.332.725-.484,0-.907.272-1.511a3.537,3.537,0,0,0,.151-2.3c-.181-1.239-2.72-11.907-3.536-15.05a122.747,122.747,0,0,1-2.81-12.481c-.272-2.75-.212-5.047.665-6.679s1.813-2.085,1.813-2.72a22.1,22.1,0,0,1-.514-2.538c-.181-1.964-.332-2.69.121-4.11a17.1,17.1,0,0,1,2.236-3.929,2.176,2.176,0,0,1,.393-1.148,3.737,3.737,0,0,1,.212-1.058,5.678,5.678,0,0,0,.574-1.541C255.488,96.748,255.639,93.062,257.029,92.85Z" transform="translate(-249.815 -88.945)" fill="#341e12"/></svg>