<svg xmlns="http://www.w3.org/2000/svg" width="28" height="28" viewBox="0 0 28 28"><circle cx="14" cy="14" r="14" fill="#ceb967"/><g transform="translate(2 5)"><ellipse cx="2.638" cy="3.104" rx="2.638" ry="3.104" transform="translate(0 7.346) rotate(-14.589)" fill="#fff"/><ellipse cx="3.104" cy="2.638" rx="3.104" ry="2.638" transform="translate(17.709 10.769) rotate(-69.1)" fill="#fff"/><ellipse cx="2.75" cy="3.547" rx="2.75" ry="3.547" transform="translate(4.961 0.732) rotate(-7.651)" fill="#fff"/><ellipse cx="3.547" cy="2.75" rx="3.547" ry="2.75" transform="matrix(0.096, -0.995, 0.995, 0.096, 12.446, 7.148)" fill="#fff"/><path d="M16,15.7c2.248-.2,2.878,1.439,4.4,2.991.926.944,3.978,1.693,2.709,4.4-1.192,2.542-3.894.79-6.575.762-3.273-.035-4.74,1.806-6.659-.677-1.068-1.383-.31-3.866,1.693-4.6S13.49,15.93,16,15.7Z" transform="translate(-3.99 -6.442)" fill="#fff"/></g></svg>