<svg xmlns="http://www.w3.org/2000/svg" width="18.03" height="17.432" viewBox="0 0 18.03 17.432"><path d="M0,9.356a.864.864,0,0,0,.864.864H3.2L6.137,21.378H15.4l.454-1.727H7.471l-.352-1.338h9.1L18.03,11.4H5.3L4.532,8.492H.86A.864.864,0,0,0,0,9.356Zm6.662,7.229-.909-3.455H15.792l-.909,3.455Z" transform="translate(0 -8.492)" fill="#fff"/><path d="M353.262,402.46a1.81,1.81,0,1,0,1.809-1.811A1.812,1.812,0,0,0,353.262,402.46Z" transform="translate(-340.822 -386.839)" fill="#fff"/><path d="M165.129,402.46a1.81,1.81,0,1,0,1.809-1.811A1.812,1.812,0,0,0,165.129,402.46Z" transform="translate(-159.314 -386.839)" fill="#fff"/></svg>