<svg xmlns="http://www.w3.org/2000/svg" width="20" height="20" viewBox="0 0 20 20"><path d="M17.071,2.929A10,10,0,1,0,20,10,9.973,9.973,0,0,0,17.071,2.929ZM15.6,4.4A7.926,7.926,0,1,1,10,2.074,7.9,7.9,0,0,1,15.6,4.4Z" fill="#df5656"/><path d="M228.31,128.325a.446.446,0,0,0,.121.234.319.319,0,0,0,.243.112.336.336,0,0,0,.364-.346l.728-5.594a3.667,3.667,0,0,0,.019-.42,1.165,1.165,0,0,0-.289-.765,1.013,1.013,0,0,0-.821-.345.994.994,0,0,0-.831.354,1.177,1.177,0,0,0-.28.756,3.913,3.913,0,0,0,.019.42Z" transform="translate(-218.674 -116.466)" fill="#df5656"/><path d="M228.217,335.456a1.129,1.129,0,1,0-1.129-1.129,1.121,1.121,0,0,0,.326.793A1.076,1.076,0,0,0,228.217,335.456Z" transform="translate(-218.217 -320.191)" fill="#df5656"/></svg>